<svg width="16" height="16" viewBox="0 0 16 16" fill="none" xmlns="http://www.w3.org/2000/svg">
<g id="beaker">
<path id="Shape" fill-rule="evenodd" clip-rule="evenodd" d="M14.3797 14.59L10.9997 7V3H11.9997V2H2.99972V3H3.99972V7L0.629719 14.59C0.329719 15.25 0.819719 16 1.53972 16H13.4797C14.1997 16 14.6797 15.25 14.3897 14.59H14.3797ZM3.74972 10L4.99972 7V3H9.99972V7L11.2497 10H3.74972ZM7.99972 8H8.99972V9H7.99972V8ZM6.99972 7H5.99972V6H6.99972V7ZM6.99972 4H7.99972V5H6.99972V4ZM6.99972 1H5.99972V0H6.99972V1Z" fill="black"/>
</g>
</svg>
