<svg width="12" height="16" viewBox="0 0 12 16" fill="none" xmlns="http://www.w3.org/2000/svg">
<g id="file-pdf">
<path id="Shape" fill-rule="evenodd" clip-rule="evenodd" d="M8.5 1H1C0.447715 1 0 1.44772 0 2V14C0 14.5523 0.447715 15 1 15H11C11.5523 15 12 14.5523 12 14V4.5L8.5 1ZM1 2H5C4.88021 2.03683 4.77293 2.10604 4.69 2.2C4.57597 2.33544 4.49698 2.49685 4.46 2.67C4.34407 3.15094 4.3136 3.64851 4.37 4.14C4.4297 4.7489 4.54348 5.35128 4.71 5.94C4.39914 6.8502 4.02833 7.73882 3.6 8.6C3.1 9.6 2.8 10.26 2.69 10.44C2.4549 10.5278 2.22458 10.628 2 10.74C1.63798 10.9048 1.30127 11.1203 1 11.38V2ZM5.42 6.8C5.65615 7.57228 6.05512 8.28496 6.59 8.89C6.8651 9.12723 7.18463 9.30739 7.53 9.42C6.89 9.51 6.3 9.62 5.72 9.75C5.10224 9.8993 4.49707 10.0966 3.91 10.34C3.32293 10.5834 4.13 9.9 4.52 9.09C4.88539 8.34936 5.18974 7.58014 5.43 6.79L5.42 6.8ZM11 14H1.5C1.44352 14.0065 1.38648 14.0065 1.33 14C1.60061 13.9043 1.84896 13.7546 2.06 13.56C2.76701 12.8584 3.36678 12.0565 3.84 11.18C4.15 11.05 4.42 10.95 4.65 10.87L5.07 10.73C5.52 10.6 6.01 10.5 6.51 10.4C7.01 10.3 7.51 10.24 7.99 10.2C8.43725 10.4163 8.90231 10.5936 9.38 10.73C9.78289 10.8407 10.1943 10.9177 10.61 10.96C10.75 10.96 10.88 10.96 10.99 10.96V14H11ZM11 9.14C10.7959 9.0269 10.5816 8.93316 10.36 8.86C10.1138 8.80091 9.86279 8.76409 9.61 8.75C9.1988 8.75303 8.78812 8.77974 8.38 8.83C8.00736 8.68541 7.66737 8.46782 7.38 8.19C6.78282 7.51841 6.34221 6.72259 6.09 5.86C6.20098 5.19851 6.2678 4.53037 6.29 3.86C6.30924 3.61037 6.30924 3.35963 6.29 3.11C6.35922 2.80152 6.28575 2.47826 6.09 2.23C5.92719 2.07233 5.70638 1.98907 5.48 2H8L11 5V9.13V9.14Z" fill="black"/>
</g>
</svg>
