<svg width="12" height="16" viewBox="0 0 12 16" fill="none" xmlns="http://www.w3.org/2000/svg">
<g id="flame">
<path id="Shape" fill-rule="evenodd" clip-rule="evenodd" d="M5.05001 0.310002C5.86 2.48 5.46001 3.68999 4.53001 4.61999C3.55001 5.66999 1.98001 6.44999 0.900018 7.97998C-0.549979 10.03 -0.799978 14.51 4.43001 15.68C2.23001 14.52 1.76002 11.16 4.13001 9.06998C3.52001 11.1 4.66001 12.4 6.07 11.93C7.46 11.46 8.37 12.46 8.34 13.6C8.32 14.38 8.03 15.04 7.21 15.41C10.63 14.82 11.99 11.99 11.99 9.84998C11.99 7.00999 9.46 6.62999 10.74 4.23999C9.22 4.36999 8.71 5.36999 8.85 6.98999C8.94 8.06998 7.83 8.78998 6.99 8.31998C6.32 7.90998 6.33 7.12998 6.93 6.53999C8.18 5.30999 8.68 2.45 5.05001 0.320002L5.03001 0.300002L5.05001 0.310002Z" fill="black"/>
</g>
</svg>
