<svg width="14" height="16" viewBox="0 0 14 16" fill="none" xmlns="http://www.w3.org/2000/svg">
<g id="gear">
<path id="Shape" fill-rule="evenodd" clip-rule="evenodd" d="M14 8.77001V7.17001L12.06 6.53001L11.61 5.44001L12.49 3.60001L11.36 2.47001L9.55 3.38001L8.46 2.93001L7.77 1.01001H6.17L5.54 2.95001L4.43 3.40001L2.59 2.52001L1.46 3.65001L2.37 5.46001L1.92 6.55001L0 7.23001V8.82001L1.94 9.46001L2.39 10.55L1.51 12.39L2.64 13.52L4.45 12.61L5.54 13.06L6.23 14.98H7.82L8.45 13.04L9.56 12.59L11.4 13.47L12.53 12.34L11.61 10.53L12.08 9.44001L14 8.75001V8.77001ZM7 11C5.34 11 4 9.66001 4 8.00001C4 6.34001 5.34 5.00001 7 5.00001C8.66 5.00001 10 6.34001 10 8.00001C10 9.66001 8.66 11 7 11Z" fill="black"/>
</g>
</svg>
