<svg width="14" height="16" viewBox="0 0 14 16" fill="none" xmlns="http://www.w3.org/2000/svg">
<g id="gift">
<path id="Shape" fill-rule="evenodd" clip-rule="evenodd" d="M13 4H11.62C11.81 3.67 11.95 3.33 11.98 3.09C12.04 2.42 11.87 1.87 11.46 1.48C11.1 1.1 10.65 1 10.1 1C10.05 1 10.02 1 9.99001 1C9.46001 1.02 8.88001 1.25 8.46001 1.58C8.04001 1.91 7.73001 2.3 7.49001 2.78C7.26001 2.3 6.94001 1.9 6.52001 1.58C6.10001 1.26 5.52001 1 4.99001 1C4.97001 1 4.96001 1 4.96001 1C4.40001 1 3.90001 1.09 3.52001 1.48C3.11001 1.87 2.94001 2.42 3.00001 3.09C3.03001 3.32 3.17001 3.67 3.36001 4H1.98001C1.43001 4 0.980011 4.45 0.980011 5V8H1.98001V13C1.98001 13.55 2.43001 14 2.98001 14H11.98C12.53 14 12.98 13.55 12.98 13V8H13.98V5C13.98 4.45 13.53 4 12.98 4H13ZM8.22001 3.12C8.39001 2.76 8.64001 2.45 8.97001 2.2C9.27001 1.97 9.69001 1.81 10.02 1.79H10.11C10.56 1.79 10.77 1.9 10.91 2.04C11.05 2.18 11.24 2.43 11.21 2.99C11.16 3.18 10.96 3.6 10.71 3.99H7.81001L8.22001 3.11V3.12ZM4.09001 2.04C4.22001 1.91 4.40001 1.79 5.00001 1.79C5.31001 1.79 5.72001 1.96 6.03001 2.2C6.36001 2.45 6.61001 2.75 6.78001 3.12L7.20001 4H4.30001C4.05001 3.61 3.85001 3.19 3.80001 3C3.77001 2.44 3.96001 2.19 4.10001 2.05L4.09001 2.04ZM7.00001 12.99H3.00001V8H7.00001V13V12.99ZM7.00001 6.99H2.00001V5H7.00001V7V6.99ZM12 12.99H8.00001V8H12V13V12.99ZM13 6.99H8.00001V5H13V7V6.99Z" fill="black"/>
</g>
</svg>
