<svg width="14" height="16" viewBox="0 0 14 16" fill="none" xmlns="http://www.w3.org/2000/svg">
<g id="quote">
<path id="Shape" fill-rule="evenodd" clip-rule="evenodd" d="M6.16 3.49997C3.73 5.05997 2.55 6.66997 2.55 9.35997C2.71 9.30997 2.85 9.30997 2.99 9.30997C4.26 9.30997 5.49 10.17 5.49 11.72C5.49 13.33 4.46 14.33 2.99 14.33C1.09 14.33 0 12.81 0 10.08C0 6.27997 1.75 3.54997 5.02 1.65997L6.16 3.49997ZM13.16 3.49997C10.73 5.05997 9.55 6.66997 9.55 9.35997C9.71 9.30997 9.85 9.30997 9.99 9.30997C11.26 9.30997 12.49 10.17 12.49 11.72C12.49 13.33 11.46 14.33 9.99 14.33C8.1 14.33 7.01 12.81 7.01 10.08C7.01 6.27997 8.76 3.54997 12.03 1.65997L13.17 3.49997H13.16Z" fill="black"/>
</g>
</svg>
