<svg width="16" height="16" viewBox="0 0 16 16" fill="none" xmlns="http://www.w3.org/2000/svg">
<g id="shield-x">
<path id="Vector" d="M6.5 0L0 1.875V7.51875C0 11.8969 4.93071 15 6.5 15C7.12949 15 8.29984 14.5007 9.47586 13.6201L8.81274 12.957C7.88876 13.6248 6.99597 14 6.5 14C5.17214 14 1 11.3106 1 7.51625V2.625L6.5 1L12 2.625V6.85579L12.48 7.33578L13 6.81578V1.875L6.5 0ZM12.48 8.75L10.73 7L9.25 8.48L11 10.23L9.25 11.98L10.73 13.46L12.48 11.71L14.23 13.46L15.71 11.98L13.96 10.23L15.71 8.48L14.23 7L12.48 8.75ZM2 3.375L6.5 2V13C5.41357 13 2 10.7244 2 7.51375V3.375Z" fill="black"/>
</g>
</svg>
