<svg width="16" height="16" viewBox="0 0 16 16" fill="none" xmlns="http://www.w3.org/2000/svg">
<g id="shield-check">
<path id="Vector" d="M6.5 0L0 1.875V7.51875C0 11.8969 4.93071 15 6.5 15C7.24112 15 8.73194 14.3079 10.0991 13.1163L9.3868 12.5058C8.27503 13.4535 7.09855 14 6.5 14C5.17214 14 1 11.3106 1 7.51625V2.625L6.5 1L12 2.625V7.51625C12 7.64423 11.9953 7.77096 11.986 7.89637L13 6.7134V1.875L6.5 0ZM11.5 9.99999L9.5 8.5L8 10L11.5 13L16 8L14.5 6.5L11.5 9.99999ZM2 3.375L6.5 2V13C5.41357 13 2 10.7244 2 7.51375V3.375Z" fill="black"/>
</g>
</svg>
