<svg width="16" height="16" viewBox="0 0 16 16" fill="none" xmlns="http://www.w3.org/2000/svg">
<g id="skip">
<path id="Vector" fill-rule="evenodd" clip-rule="evenodd" d="M5.79032 11.6239L4.46449 11.5355L4.3761 10.2097L10.2097 4.37608L11.5356 4.46447L11.6239 5.79029L5.79032 11.6239ZM8 15C11.866 15 15 11.866 15 8C15 4.13401 11.866 1 8 1C4.13401 1 1 4.13401 1 8C1 11.866 4.13401 15 8 15ZM13.5 8C13.5 11.0376 11.0376 13.5 8 13.5C4.96243 13.5 2.5 11.0376 2.5 8C2.5 4.96243 4.96243 2.5 8 2.5C11.0376 2.5 13.5 4.96243 13.5 8Z" fill="black"/>
</g>
</svg>
