<svg width="12" height="16" viewBox="0 0 12 16" fill="none" xmlns="http://www.w3.org/2000/svg">
<g id="sync">
<path id="Shape" fill-rule="evenodd" clip-rule="evenodd" d="M10.24 7.4C10.43 8.68 10.04 10.02 9.04001 11C7.57001 12.45 5.30001 12.63 3.63001 11.54L4.80001 10.4L0.500006 9.8L1.10001 14L2.41001 12.74C4.77001 14.48 8.11001 14.31 10.25 12.2C11.49 10.97 12.06 9.35 11.99 7.74L10.24 7.4ZM2.96001 5C4.43001 3.55 6.70001 3.37 8.37001 4.46L7.20001 5.6L11.5 6.2L10.9 2L9.59001 3.26C7.23001 1.52 3.89001 1.69 1.74001 3.8C0.500006 5.03 -0.0599943 6.65 0.0100057 8.26L1.76001 8.61C1.57001 7.33 1.96001 5.98 2.96001 5Z" fill="black"/>
</g>
</svg>
