<svg width="16" height="16" viewBox="0 0 16 16" fill="none" xmlns="http://www.w3.org/2000/svg">
<g id="tools">
<path id="Shape" fill-rule="evenodd" clip-rule="evenodd" d="M4.48001 7.26999C4.74001 7.52999 5.76001 8.59999 5.76001 8.59999L6.32001 8.01999L5.44001 7.10999L7.13001 5.31C7.13001 5.31 6.37001 4.57 6.70001 4.86C7.02001 3.67 6.73001 2.35 5.83001 1.42C4.93001 0.5 3.66001 0.2 2.52001 0.51L4.45001 2.51L3.94001 4.47L2.05001 4.99L0.120014 2.99C-0.189986 4.17 0.100014 5.48 1.00001 6.39999C1.94001 7.37999 3.29001 7.65999 4.48001 7.26999ZM10.92 9.20999L8.59001 11.51L12.43 15.49C12.74 15.82 13.16 15.98 13.57 15.98C13.98 15.98 14.39 15.82 14.71 15.49C15.34 14.84 15.34 13.79 14.71 13.14L10.92 9.20999ZM16 2.53L13.55 0L6.33001 7.45999L7.21001 8.36999L2.90001 12.83L1.91001 13.36L0.520014 15.63L0.870013 16L3.07001 14.56L3.58001 13.54L7.90001 9.07999L8.78001 9.98999L16 2.53Z" fill="black"/>
</g>
</svg>
