<svg width="16" height="16" viewBox="0 0 16 16" fill="none" xmlns="http://www.w3.org/2000/svg">
<g id="unmute">
<path id="Shape" fill-rule="evenodd" clip-rule="evenodd" d="M12 8.02001C12 9.11001 11.55 10.11 10.83 10.85L10.16 10.18C10.71 9.62001 11.05 8.87001 11.05 8.02001C11.05 7.17001 10.71 6.41001 10.16 5.86001L10.83 5.19001C11.55 5.91001 12 6.91001 12 8.02001ZM7.72 2.28001L4 6.00001H2C1.45 6.00001 1 6.45001 1 7.00001V9.00001C1 9.55001 1.45 10 2 10H4L7.72 13.72C8.19 14.19 9 13.86 9 13.19V2.81001C9 2.14001 8.19 1.81001 7.72 2.28001ZM13.66 2.36001L12.99 3.03001C14.27 4.31001 15.05 6.06001 15.05 8.01001C15.05 9.95001 14.27 11.71 12.99 12.99L13.66 13.66C15.11 12.21 16 10.21 16 8.00001C16 5.78001 15.11 3.78001 13.66 2.34001V2.36001ZM12.25 3.77001L11.56 4.44001C12.48 5.36001 13.04 6.63001 13.04 8.02001C13.04 9.41001 12.48 10.68 11.56 11.58L12.25 12.25C13.33 11.17 14 9.67001 14 8.02001C14 6.37001 13.33 4.86001 12.25 3.77001Z" fill="black"/>
</g>
</svg>
