<svg width="115" height="115" viewBox="0 0 115 115" fill="none" xmlns="http://www.w3.org/2000/svg">
<g id="flask-state-standard">
<g id="Group 36">
<path id="Vector 3" d="M32.353 81.587L46.7759 62.0454H72.3354L79.6382 86.1959L36.5521 88.5925L32.353 81.587Z" fill="#00D1CD"/>
<path id="Vector" fill-rule="evenodd" clip-rule="evenodd" d="M83.6864 77.5556C75.3607 56.5601 65.6425 51.0266 65.6425 40.5556V28.2222H67.6782C68.2181 28.2222 68.7358 28.0057 69.1176 27.6202C69.4993 27.2347 69.7138 26.7118 69.7138 26.1667V22.0556C69.7138 21.5104 69.4993 20.9875 69.1176 20.6021C68.7358 20.2166 68.2181 20 67.6782 20H47.3218C46.7819 20 46.2642 20.2166 45.8824 20.6021C45.5007 20.9875 45.2862 21.5104 45.2862 22.0556V26.1667C45.2862 26.7118 45.5007 27.2347 45.8824 27.6202C46.2642 28.0057 46.7819 28.2222 47.3218 28.2222H49.3575V40.5556C49.3575 51.0266 39.6393 56.5601 31.3136 77.5556C28.6632 84.2361 21.856 94 57.5 94C93.144 94 86.3368 84.2361 83.6864 77.5556Z" fill="#AAAAAA"/>
<path id="Vector_2" fill-rule="evenodd" clip-rule="evenodd" d="M83.6864 77.5556C75.3607 56.5601 65.6425 51.0266 65.6425 40.5556V28.2222H67.6782C68.2181 28.2222 68.7358 28.0057 69.1176 27.6202C69.4993 27.2347 69.7138 26.7118 69.7138 26.1667V22.0556C69.7138 21.5104 69.4993 20.9875 69.1176 20.6021C68.7358 20.2166 68.2181 20 67.6782 20H47.3218C46.7819 20 46.2642 20.2166 45.8824 20.6021C45.5007 20.9875 45.2862 21.5104 45.2862 22.0556V26.1667C45.2862 26.7118 45.5007 27.2347 45.8824 27.6202C46.2642 28.0057 46.7819 28.2222 47.3218 28.2222H49.3575V40.5556C49.3575 51.0266 39.6393 56.5601 31.3136 77.5556C28.6632 84.2361 21.856 94 57.5 94C93.144 94 86.3368 84.2361 83.6864 77.5556ZM77.1032 84.7541C74.2451 85.6174 68.5576 86.6 57.5 86.6C46.4424 86.6 40.7549 85.6174 37.8968 84.7541C36.8831 84.4499 36.4882 83.2618 36.8465 82.1723C37.7421 79.4179 40.9289 72.827 44.0882 67.5114C51.8074 54.5244 54.1883 73.3977 60.8529 73.3977C67.5176 73.3977 69.9989 65.6599 72.5882 70.0341C74.971 74.0813 76.7186 77.6924 78.1535 82.1723C78.5118 83.2618 78.1169 84.4458 77.1032 84.7541Z" fill="#444444"/>
</g>
<g id="Group 37">
<line id="Line 5" x1="22.9015" y1="70.2254" x2="5.22407" y2="58.6743" stroke="#444444" stroke-width="4"/>
<line id="Line 6" x1="23.6427" y1="77.1036" x2="2.75948" y2="73.9714" stroke="#444444" stroke-width="4"/>
<line id="Line 7" x1="23.5454" y1="82.9385" x2="3.67769" y2="90.0933" stroke="#444444" stroke-width="4"/>
</g>
<g id="Group 38">
<line id="Line 5_2" y1="-2" x2="21.9304" y2="-2" transform="matrix(0.850041 -0.526717 -0.567415 -0.823432 90.6364 69.0512)" stroke="#444444" stroke-width="4"/>
<line id="Line 6_2" y1="-2" x2="22.244" y2="-2" transform="matrix(0.990037 -0.14081 -0.156226 -0.987721 90.6956 75.6258)" stroke="#444444" stroke-width="4"/>
<line id="Line 7_2" y1="-2" x2="22.1395" y2="-2" transform="matrix(0.946342 0.323168 0.355027 -0.934856 91.8256 81.5568)" stroke="#444444" stroke-width="4"/>
</g>
</g>
</svg>
