<svg width="115" height="115" viewBox="0 0 115 115" fill="none" xmlns="http://www.w3.org/2000/svg">
<g id="flask-state-pomodoro">
<g id="Group 34">
<path id="Vector 4" d="M34 83.5416L48.4229 64H73.9824L81.2851 88.1505L38.1991 90.5471L34 83.5416Z" fill="#C4C4C4"/>
<path id="Vector" fill-rule="evenodd" clip-rule="evenodd" d="M83.6864 77.5556C75.3607 56.5601 65.6425 51.0266 65.6425 40.5556V28.2222H67.6782C68.2181 28.2222 68.7358 28.0057 69.1176 27.6202C69.4993 27.2347 69.7138 26.7118 69.7138 26.1667V22.0556C69.7138 21.5104 69.4993 20.9875 69.1176 20.6021C68.7358 20.2166 68.2181 20 67.6782 20H47.3218C46.7819 20 46.2642 20.2166 45.8824 20.6021C45.5007 20.9875 45.2862 21.5104 45.2862 22.0556V26.1667C45.2862 26.7118 45.5007 27.2347 45.8824 27.6202C46.2642 28.0057 46.7819 28.2222 47.3218 28.2222H49.3575V40.5556C49.3575 51.0266 39.6393 56.5601 31.3136 77.5556C28.6632 84.2361 21.856 94 57.5 94C93.144 94 86.3368 84.2361 83.6864 77.5556Z" fill="#F30067"/>
<path id="Vector 5" d="M35 81.4288C53.4439 81.1577 66.5321 74.6359 47.8108 65.888C29.0895 57.14 70.5135 65.888 70.5135 65.888L77 85.0941L38.7297 87L35 81.4288Z" fill="#FA9F62"/>
<path id="Vector 3" d="M36 83.8688C56.6396 83.5219 83.45 80.1974 62.5 69C41.55 57.8026 75.7413 63.9766 75.7413 63.9766L83 88.5604L40.1737 91L36 83.8688Z" fill="#00D1CD"/>
<path id="Vector_2" fill-rule="evenodd" clip-rule="evenodd" d="M83.6864 77.5556C75.3607 56.5601 65.6425 51.0266 65.6425 40.5556V28.2222H67.6782C68.2181 28.2222 68.7358 28.0057 69.1176 27.6202C69.4993 27.2347 69.7138 26.7118 69.7138 26.1667V22.0556C69.7138 21.5104 69.4993 20.9875 69.1176 20.6021C68.7358 20.2166 68.2181 20 67.6782 20H47.3218C46.7819 20 46.2642 20.2166 45.8824 20.6021C45.5007 20.9875 45.2862 21.5104 45.2862 22.0556V26.1667C45.2862 26.7118 45.5007 27.2347 45.8824 27.6202C46.2642 28.0057 46.7819 28.2222 47.3218 28.2222H49.3575V40.5556C49.3575 51.0266 39.6393 56.5601 31.3136 77.5556C28.6632 84.2361 21.856 94 57.5 94C93.144 94 86.3368 84.2361 83.6864 77.5556ZM77.1032 84.7541C74.2451 85.6174 68.5576 86.6 57.5 86.6C46.4424 86.6 40.7549 85.6174 37.8968 84.7541C36.8831 84.4499 36.4882 83.2618 36.8465 82.1723C37.7421 79.4179 40.9289 72.827 44.0882 67.5114C51.8074 54.5244 56.8353 70.0341 63.5 70.0341C70.1647 70.0341 69.9989 65.6599 72.5882 70.0341C74.971 74.0813 76.7186 77.6924 78.1535 82.1723C78.5118 83.2618 78.1169 84.4458 77.1032 84.7541Z" fill="#444444"/>
</g>
</g>
</svg>
