<svg width="1687" height="100" viewBox="0 0 1687 100" fill="none" xmlns="http://www.w3.org/2000/svg">
<g id="head">
<g id="menu-alt-3">
<path id="Vector" fill-rule="evenodd" clip-rule="evenodd" d="M1627 40C1627 39.4696 1627.21 38.9609 1627.59 38.5858C1627.96 38.2107 1628.47 38 1629 38H1653C1653.53 38 1654.04 38.2107 1654.41 38.5858C1654.79 38.9609 1655 39.4696 1655 40C1655 40.5304 1654.79 41.0391 1654.41 41.4142C1654.04 41.7893 1653.53 42 1653 42H1629C1628.47 42 1627.96 41.7893 1627.59 41.4142C1627.21 41.0391 1627 40.5304 1627 40ZM1627 50C1627 49.4696 1627.21 48.9609 1627.59 48.5858C1627.96 48.2107 1628.47 48 1629 48H1653C1653.53 48 1654.04 48.2107 1654.41 48.5858C1654.79 48.9609 1655 49.4696 1655 50C1655 50.5304 1654.79 51.0391 1654.41 51.4142C1654.04 51.7893 1653.53 52 1653 52H1629C1628.47 52 1627.96 51.7893 1627.59 51.4142C1627.21 51.0391 1627 50.5304 1627 50ZM1639 60C1639 59.4696 1639.21 58.9609 1639.59 58.5858C1639.96 58.2107 1640.47 58 1641 58H1653C1653.53 58 1654.04 58.2107 1654.41 58.5858C1654.79 58.9609 1655 59.4696 1655 60C1655 60.5304 1654.79 61.0391 1654.41 61.4142C1654.04 61.7893 1653.53 62 1653 62H1641C1640.47 62 1639.96 61.7893 1639.59 61.4142C1639.21 61.0391 1639 60.5304 1639 60Z" fill="black"/>
</g>
<g id="flasq logo black">
<g id="flasq logo">
<path id="Vector 2" d="M868.708 55.8098L873.943 48.7388H883.221L885.872 57.4775L870.232 58.3447L868.708 55.8098Z" fill="#00D1CD"/>
<path id="Vector_2" fill-rule="evenodd" clip-rule="evenodd" d="M887.16 54.4423C884.138 46.8453 880.61 44.843 880.61 41.0542V36.5914H881.349C881.545 36.5914 881.733 36.5131 881.872 36.3736C882.01 36.2341 882.088 36.0449 882.088 35.8476V34.3601C882.088 34.1628 882.01 33.9736 881.872 33.8341C881.733 33.6946 881.545 33.6163 881.349 33.6163H873.96C873.764 33.6163 873.576 33.6946 873.437 33.8341C873.299 33.9736 873.221 34.1628 873.221 34.3601V35.8476C873.221 36.0449 873.299 36.2341 873.437 36.3736C873.576 36.5131 873.764 36.5914 873.96 36.5914H874.699V41.0542C874.699 44.843 871.171 46.8453 868.149 54.4423C867.187 56.8596 864.716 60.3926 877.654 60.3926C890.593 60.3926 888.122 56.8596 887.16 54.4423ZM884.77 57.0471C883.733 57.3595 881.668 57.715 877.654 57.715C873.641 57.715 871.576 57.3595 870.539 57.0471C870.171 56.937 870.027 56.5071 870.157 56.1129C870.482 55.1162 871.096 53.3936 872.243 51.4702C875.045 46.7709 877.952 52.2095 880.371 52.2095C882.79 52.2095 882.126 49.8874 883.066 51.4702C883.931 52.9346 884.631 54.4919 885.152 56.1129C885.282 56.5071 885.138 56.9355 884.77 57.0471Z" fill="#333333"/>
<g id="flasq">
<path d="M812.292 35.0057C810.826 34.7086 809.607 34.56 808.637 34.56C807.616 34.56 806.829 34.8671 806.274 35.4812C805.72 36.0854 805.442 36.9471 805.442 38.0663V40.0572H809.275V41.5132H805.442V56.1328H803.659V41.5132H801V40.0572H803.659V38.0069C803.669 36.3825 804.1 35.1444 804.952 34.2926C805.804 33.4309 806.992 33 808.518 33C809.746 33 811.593 33.3021 814.06 33.9063V56.1328H812.292V35.0057Z" fill="#333333"/>
<path d="M829.11 56.1328C828.932 55.6276 828.818 54.8798 828.768 53.8893C828.144 54.7015 827.347 55.3305 826.376 55.7762C825.415 56.212 824.395 56.4299 823.316 56.4299C821.77 56.4299 820.517 55.999 819.557 55.1373C818.606 54.2756 818.13 53.1861 818.13 51.8687C818.13 50.3038 818.779 49.0657 820.077 48.1544C821.384 47.2432 823.202 46.7875 825.529 46.7875H828.753V44.9601C828.753 43.8111 828.397 42.9098 827.684 42.2561C826.98 41.5925 825.95 41.2606 824.593 41.2606C823.355 41.2606 822.33 41.5776 821.518 42.2115C820.706 42.8454 820.3 43.6081 820.3 44.4995L818.517 44.4847C818.517 43.2069 819.111 42.1026 820.3 41.1715C821.488 40.2305 822.949 39.7601 824.682 39.7601C826.475 39.7601 827.887 40.2107 828.917 41.1121C829.957 42.0035 830.492 43.2515 830.521 44.8561V52.463C830.521 54.0181 830.685 55.1819 831.012 55.9545V56.1328H829.11ZM823.524 54.855C824.712 54.855 825.772 54.5678 826.703 53.9933C827.644 53.4188 828.327 52.6512 828.753 51.6904V48.1544H825.574C823.801 48.1742 822.414 48.5011 821.414 49.135C820.413 49.759 819.913 50.6207 819.913 51.7202C819.913 52.6215 820.245 53.3693 820.909 53.9636C821.582 54.5579 822.454 54.855 823.524 54.855Z" fill="#333333"/>
<path d="M844.903 52.047C844.903 51.1655 844.547 50.4573 843.833 49.9224C843.13 49.3876 842.065 48.9716 840.639 48.6744C839.213 48.3674 838.104 48.0207 837.311 47.6344C836.529 47.2382 835.944 46.7578 835.558 46.1933C835.182 45.6287 834.993 44.9452 834.993 44.143C834.993 42.8751 835.523 41.8302 836.583 41.0081C837.643 40.1761 839 39.7601 840.654 39.7601C842.447 39.7601 843.883 40.2058 844.963 41.0972C846.052 41.9787 846.597 43.1327 846.597 44.559H844.814C844.814 43.618 844.418 42.8355 843.625 42.2115C842.843 41.5875 841.853 41.2755 840.654 41.2755C839.485 41.2755 838.544 41.538 837.831 42.0629C837.128 42.578 836.776 43.2515 836.776 44.0835C836.776 44.8858 837.068 45.5098 837.653 45.9555C838.247 46.3913 839.322 46.7925 840.877 47.159C842.442 47.5255 843.611 47.9167 844.383 48.3327C845.166 48.7487 845.745 49.2489 846.122 49.8333C846.498 50.4177 846.686 51.1259 846.686 51.9579C846.686 53.3148 846.136 54.3994 845.037 55.2116C843.947 56.0238 842.521 56.4299 840.758 56.4299C838.886 56.4299 837.366 55.9792 836.197 55.0779C835.038 54.1667 834.459 53.0177 834.459 51.631H836.241C836.311 52.671 836.747 53.4832 837.549 54.0676C838.361 54.6421 839.431 54.9293 840.758 54.9293C841.996 54.9293 842.997 54.6569 843.759 54.1122C844.522 53.5674 844.903 52.879 844.903 52.047Z" fill="#333333"/>
<path d="M849.984 47.9464C849.984 45.4306 850.539 43.4397 851.648 41.9738C852.768 40.498 854.293 39.7601 856.224 39.7601C858.394 39.7601 860.043 40.5871 861.172 42.2412L861.261 40.0572H862.925V62.3134H861.142V54.1419C859.973 55.6672 858.324 56.4299 856.195 56.4299C854.313 56.4299 852.807 55.687 851.678 54.2013C850.549 52.7156 849.984 50.7099 849.984 48.1841V47.9464ZM851.782 48.2584C851.782 50.3384 852.198 51.9727 853.03 53.1613C853.872 54.34 855.036 54.9293 856.522 54.9293C858.651 54.9293 860.191 54.0032 861.142 52.151V44.2767C860.696 43.3159 860.077 42.578 859.285 42.0629C858.503 41.538 857.591 41.2755 856.551 41.2755C855.056 41.2755 853.887 41.8698 853.045 43.0584C852.203 44.237 851.782 45.9704 851.782 48.2584Z" fill="#333333"/>
</g>
</g>
</g>
</g>
</svg>
