<svg width="168" height="24" viewBox="0 0 168 24" fill="none" xmlns="http://www.w3.org/2000/svg">
<g id="menu item">
<g id="icon">
<g id="Component">
<path id="Vector" d="M3.34255 7.77789C3.5687 7.23192 3.90017 6.73584 4.31804 6.31798C4.7359 5.90011 5.23198 5.56864 5.77795 5.34249C6.32392 5.11634 6.90909 4.99994 7.50004 4.99994C8.09099 4.99994 8.67616 5.11634 9.22213 5.34249C9.7681 5.56864 10.2642 5.90011 10.682 6.31798L12 7.63598L13.318 6.31798C14.162 5.47406 15.3066 4.99995 16.5 4.99995C17.6935 4.99995 18.8381 5.47406 19.682 6.31798C20.526 7.1619 21.0001 8.3065 21.0001 9.49998C21.0001 10.6935 20.526 11.8381 19.682 12.682L12 20.364L4.31804 12.682C3.90017 12.2641 3.5687 11.768 3.34255 11.2221C3.1164 10.6761 3 10.0909 3 9.49998C3 8.90902 3.1164 8.32386 3.34255 7.77789Z" stroke="black" stroke-width="2" stroke-linecap="round" stroke-linejoin="round"/>
</g>
</g>
<path id="Share the passion" d="M46.856 9.92H48.296C48.2747 9.29067 48.152 8.752 47.928 8.304C47.7147 7.84533 47.416 7.46667 47.032 7.168C46.6587 6.86933 46.2213 6.65067 45.72 6.512C45.2187 6.37333 44.6747 6.304 44.088 6.304C43.5653 6.304 43.0533 6.37333 42.552 6.512C42.0613 6.64 41.6187 6.84267 41.224 7.12C40.84 7.38667 40.5307 7.73333 40.296 8.16C40.0613 8.576 39.944 9.072 39.944 9.648C39.944 10.1707 40.0453 10.608 40.248 10.96C40.4613 11.3013 40.7387 11.584 41.08 11.808C41.432 12.0213 41.8267 12.1973 42.264 12.336C42.7013 12.464 43.144 12.5813 43.592 12.688C44.0507 12.784 44.4987 12.88 44.936 12.976C45.3733 13.072 45.7627 13.2 46.104 13.36C46.456 13.5093 46.7333 13.7067 46.936 13.952C47.1493 14.1973 47.256 14.5173 47.256 14.912C47.256 15.328 47.1707 15.6693 47 15.936C46.8293 16.2027 46.6053 16.416 46.328 16.576C46.0507 16.7253 45.736 16.832 45.384 16.896C45.0427 16.96 44.7013 16.992 44.36 16.992C43.9333 16.992 43.5173 16.9387 43.112 16.832C42.7067 16.7253 42.3493 16.56 42.04 16.336C41.7413 16.112 41.496 15.8293 41.304 15.488C41.1227 15.136 41.032 14.72 41.032 14.24H39.592C39.592 14.9333 39.7147 15.536 39.96 16.048C40.216 16.5493 40.5573 16.9653 40.984 17.296C41.4213 17.616 41.9227 17.856 42.488 18.016C43.064 18.176 43.672 18.256 44.312 18.256C44.8347 18.256 45.3573 18.192 45.88 18.064C46.4133 17.9467 46.8933 17.7547 47.32 17.488C47.7467 17.2107 48.0933 16.8587 48.36 16.432C48.6373 15.9947 48.776 15.472 48.776 14.864C48.776 14.2987 48.6693 13.8293 48.456 13.456C48.2533 13.0827 47.976 12.7733 47.624 12.528C47.2827 12.2827 46.8933 12.0907 46.456 11.952C46.0187 11.8027 45.5707 11.6747 45.112 11.568C44.664 11.4613 44.2213 11.3653 43.784 11.28C43.3467 11.184 42.952 11.0667 42.6 10.928C42.2587 10.7893 41.9813 10.6133 41.768 10.4C41.5653 10.176 41.464 9.888 41.464 9.536C41.464 9.16267 41.5333 8.85333 41.672 8.608C41.8213 8.352 42.0133 8.14933 42.248 8C42.4933 7.85067 42.7707 7.744 43.08 7.68C43.3893 7.616 43.704 7.584 44.024 7.584C44.8133 7.584 45.4587 7.77067 45.96 8.144C46.472 8.50667 46.7707 9.09867 46.856 9.92ZM50.399 6.576V18H51.759V13.328C51.759 12.9547 51.807 12.6133 51.903 12.304C52.0097 11.984 52.1643 11.7067 52.367 11.472C52.5697 11.2373 52.8203 11.056 53.119 10.928C53.4283 10.8 53.791 10.736 54.207 10.736C54.7297 10.736 55.1403 10.8853 55.439 11.184C55.7377 11.4827 55.887 11.888 55.887 12.4V18H57.247V12.56C57.247 12.112 57.199 11.7067 57.103 11.344C57.0177 10.9707 56.863 10.6507 56.639 10.384C56.415 10.1173 56.1217 9.90933 55.759 9.76C55.3963 9.61067 54.943 9.536 54.399 9.536C54.1537 9.536 53.8977 9.56267 53.631 9.616C53.375 9.66933 53.1243 9.75467 52.879 9.872C52.6443 9.97867 52.431 10.1227 52.239 10.304C52.047 10.4747 51.8977 10.688 51.791 10.944H51.759V6.576H50.399ZM66.6176 17.968C66.383 18.1067 66.0576 18.176 65.6416 18.176C65.2896 18.176 65.007 18.08 64.7936 17.888C64.591 17.6853 64.4896 17.36 64.4896 16.912C64.1163 17.36 63.679 17.6853 63.1776 17.888C62.687 18.08 62.1536 18.176 61.5776 18.176C61.2043 18.176 60.847 18.1333 60.5056 18.048C60.175 17.9627 59.887 17.8293 59.6416 17.648C59.3963 17.4667 59.199 17.232 59.0496 16.944C58.911 16.6453 58.8416 16.288 58.8416 15.872C58.8416 15.4027 58.9216 15.0187 59.0816 14.72C59.2416 14.4213 59.4496 14.1813 59.7056 14C59.9723 13.808 60.271 13.664 60.6016 13.568C60.943 13.472 61.2896 13.392 61.6416 13.328C62.015 13.2533 62.367 13.2 62.6976 13.168C63.039 13.1253 63.3376 13.072 63.5936 13.008C63.8496 12.9333 64.0523 12.832 64.2016 12.704C64.351 12.5653 64.4256 12.368 64.4256 12.112C64.4256 11.8133 64.367 11.5733 64.2496 11.392C64.143 11.2107 63.999 11.072 63.8176 10.976C63.647 10.88 63.4496 10.816 63.2256 10.784C63.0123 10.752 62.799 10.736 62.5856 10.736C62.0096 10.736 61.5296 10.848 61.1456 11.072C60.7616 11.2853 60.5536 11.696 60.5216 12.304H59.1616C59.183 11.792 59.2896 11.36 59.4816 11.008C59.6736 10.656 59.9296 10.3733 60.2496 10.16C60.5696 9.936 60.9323 9.776 61.3376 9.68C61.7536 9.584 62.1963 9.536 62.6656 9.536C63.039 9.536 63.407 9.56267 63.7696 9.616C64.143 9.66933 64.479 9.78133 64.7776 9.952C65.0763 10.112 65.3163 10.3413 65.4976 10.64C65.679 10.9387 65.7696 11.328 65.7696 11.808V16.064C65.7696 16.384 65.7856 16.6187 65.8176 16.768C65.8603 16.9173 65.9883 16.992 66.2016 16.992C66.319 16.992 66.4576 16.9653 66.6176 16.912V17.968ZM64.4096 13.728C64.239 13.856 64.015 13.952 63.7376 14.016C63.4603 14.0693 63.167 14.1173 62.8576 14.16C62.559 14.192 62.255 14.2347 61.9456 14.288C61.6363 14.3307 61.359 14.4053 61.1136 14.512C60.8683 14.6187 60.6656 14.7733 60.5056 14.976C60.3563 15.168 60.2816 15.4347 60.2816 15.776C60.2816 16 60.3243 16.192 60.4096 16.352C60.5056 16.5013 60.623 16.624 60.7616 16.72C60.911 16.816 61.0816 16.8853 61.2736 16.928C61.4656 16.9707 61.6683 16.992 61.8816 16.992C62.3296 16.992 62.7136 16.9333 63.0336 16.816C63.3536 16.688 63.615 16.5333 63.8176 16.352C64.0203 16.16 64.1696 15.9573 64.2656 15.744C64.3616 15.52 64.4096 15.312 64.4096 15.12V13.728ZM67.8354 9.728V18H69.1954V14.32C69.1954 13.7867 69.2487 13.3173 69.3554 12.912C69.462 12.496 69.6327 12.144 69.8674 11.856C70.102 11.568 70.4114 11.3493 70.7954 11.2C71.1794 11.0507 71.6434 10.976 72.1874 10.976V9.536C71.4514 9.51467 70.8434 9.664 70.3634 9.984C69.8834 10.304 69.478 10.8 69.1474 11.472H69.1154V9.728H67.8354ZM78.6743 13.072H73.9223C73.9436 12.752 74.0129 12.4533 74.1303 12.176C74.2476 11.888 74.4076 11.6373 74.6103 11.424C74.8129 11.2107 75.0529 11.0453 75.3303 10.928C75.6183 10.8 75.9383 10.736 76.2903 10.736C76.6316 10.736 76.9409 10.8 77.2183 10.928C77.5063 11.0453 77.7516 11.2107 77.9543 11.424C78.1676 11.6267 78.3329 11.872 78.4503 12.16C78.5783 12.448 78.6529 12.752 78.6743 13.072ZM79.9862 15.376H78.6423C78.5249 15.92 78.2796 16.3253 77.9063 16.592C77.5436 16.8587 77.0743 16.992 76.4983 16.992C76.0503 16.992 75.6609 16.9173 75.3303 16.768C74.9996 16.6187 74.7276 16.4213 74.5143 16.176C74.3009 15.92 74.1463 15.632 74.0503 15.312C73.9543 14.9813 73.9116 14.6347 73.9223 14.272H80.1143C80.1356 13.7707 80.0876 13.2427 79.9703 12.688C79.8636 12.1333 79.6609 11.6213 79.3623 11.152C79.0743 10.6827 78.6849 10.2987 78.1943 10C77.7143 9.69067 77.1063 9.536 76.3703 9.536C75.8049 9.536 75.2823 9.64267 74.8023 9.856C74.3329 10.0693 73.9223 10.368 73.5703 10.752C73.2289 11.136 72.9623 11.5893 72.7703 12.112C72.5783 12.6347 72.4823 13.2107 72.4823 13.84C72.5036 14.4693 72.5943 15.0507 72.7543 15.584C72.9249 16.1173 73.1756 16.576 73.5063 16.96C73.8369 17.344 74.2423 17.6427 74.7223 17.856C75.2129 18.0693 75.7889 18.176 76.4503 18.176C77.3889 18.176 78.1676 17.9413 78.7863 17.472C79.4049 17.0027 79.8049 16.304 79.9862 15.376ZM87.8651 9.728V7.248H86.5051V9.728H85.0971V10.928H86.5051V16.192C86.5051 16.576 86.5425 16.8853 86.6171 17.12C86.6918 17.3547 86.8038 17.536 86.9531 17.664C87.1131 17.792 87.3158 17.8827 87.5611 17.936C87.8171 17.9787 88.1211 18 88.4731 18H89.5131V16.8H88.8891C88.6758 16.8 88.4998 16.7947 88.3611 16.784C88.2331 16.7627 88.1318 16.7253 88.0571 16.672C87.9825 16.6187 87.9291 16.544 87.8971 16.448C87.8758 16.352 87.8651 16.224 87.8651 16.064V10.928H89.5131V9.728H87.8651ZM91.024 6.576V18H92.384V13.328C92.384 12.9547 92.432 12.6133 92.528 12.304C92.6347 11.984 92.7893 11.7067 92.992 11.472C93.1947 11.2373 93.4453 11.056 93.744 10.928C94.0533 10.8 94.416 10.736 94.832 10.736C95.3547 10.736 95.7653 10.8853 96.064 11.184C96.3627 11.4827 96.512 11.888 96.512 12.4V18H97.872V12.56C97.872 12.112 97.824 11.7067 97.728 11.344C97.6427 10.9707 97.488 10.6507 97.264 10.384C97.04 10.1173 96.7467 9.90933 96.384 9.76C96.0213 9.61067 95.568 9.536 95.024 9.536C94.7787 9.536 94.5227 9.56267 94.256 9.616C94 9.66933 93.7493 9.75467 93.504 9.872C93.2693 9.97867 93.056 10.1227 92.864 10.304C92.672 10.4747 92.5227 10.688 92.416 10.944H92.384V6.576H91.024ZM105.659 13.072H100.907C100.928 12.752 100.997 12.4533 101.115 12.176C101.232 11.888 101.392 11.6373 101.595 11.424C101.797 11.2107 102.037 11.0453 102.315 10.928C102.603 10.8 102.923 10.736 103.275 10.736C103.616 10.736 103.925 10.8 104.203 10.928C104.491 11.0453 104.736 11.2107 104.939 11.424C105.152 11.6267 105.317 11.872 105.435 12.16C105.563 12.448 105.637 12.752 105.659 13.072ZM106.971 15.376H105.627C105.509 15.92 105.264 16.3253 104.891 16.592C104.528 16.8587 104.059 16.992 103.483 16.992C103.035 16.992 102.645 16.9173 102.315 16.768C101.984 16.6187 101.712 16.4213 101.499 16.176C101.285 15.92 101.131 15.632 101.035 15.312C100.939 14.9813 100.896 14.6347 100.907 14.272H107.099C107.12 13.7707 107.072 13.2427 106.955 12.688C106.848 12.1333 106.645 11.6213 106.347 11.152C106.059 10.6827 105.669 10.2987 105.179 10C104.699 9.69067 104.091 9.536 103.355 9.536C102.789 9.536 102.267 9.64267 101.787 9.856C101.317 10.0693 100.907 10.368 100.555 10.752C100.213 11.136 99.9466 11.5893 99.7546 12.112C99.5626 12.6347 99.4666 13.2107 99.4666 13.84C99.488 14.4693 99.5786 15.0507 99.7386 15.584C99.9093 16.1173 100.16 16.576 100.491 16.96C100.821 17.344 101.227 17.6427 101.707 17.856C102.197 18.0693 102.773 18.176 103.435 18.176C104.373 18.176 105.152 17.9413 105.771 17.472C106.389 17.0027 106.789 16.304 106.971 15.376ZM113.01 9.728V21.152H114.37V16.896H114.402C114.551 17.1413 114.732 17.3493 114.946 17.52C115.17 17.68 115.404 17.808 115.65 17.904C115.895 18 116.14 18.0693 116.386 18.112C116.642 18.1547 116.871 18.176 117.074 18.176C117.703 18.176 118.252 18.064 118.722 17.84C119.202 17.616 119.596 17.312 119.906 16.928C120.226 16.5333 120.46 16.0747 120.61 15.552C120.77 15.0293 120.85 14.4747 120.85 13.888C120.85 13.3013 120.77 12.7467 120.61 12.224C120.45 11.7013 120.21 11.2427 119.89 10.848C119.58 10.4427 119.186 10.1227 118.706 9.888C118.236 9.65333 117.682 9.536 117.042 9.536C116.466 9.536 115.938 9.64267 115.458 9.856C114.978 10.0587 114.626 10.3893 114.402 10.848H114.37V9.728H113.01ZM119.41 13.792C119.41 14.1973 119.367 14.592 119.282 14.976C119.196 15.36 119.058 15.7013 118.866 16C118.674 16.2987 118.418 16.5387 118.098 16.72C117.788 16.9013 117.399 16.992 116.93 16.992C116.46 16.992 116.06 16.9067 115.73 16.736C115.399 16.5547 115.127 16.32 114.914 16.032C114.711 15.744 114.562 15.4133 114.466 15.04C114.37 14.656 114.322 14.2613 114.322 13.856C114.322 13.472 114.364 13.0933 114.45 12.72C114.546 12.3467 114.695 12.016 114.898 11.728C115.1 11.4293 115.362 11.1893 115.682 11.008C116.002 10.8267 116.391 10.736 116.85 10.736C117.287 10.736 117.666 10.8213 117.986 10.992C118.316 11.1627 118.583 11.392 118.786 11.68C118.999 11.968 119.154 12.2987 119.25 12.672C119.356 13.0347 119.41 13.408 119.41 13.792ZM129.774 17.968C129.539 18.1067 129.214 18.176 128.798 18.176C128.446 18.176 128.163 18.08 127.95 17.888C127.747 17.6853 127.646 17.36 127.646 16.912C127.273 17.36 126.835 17.6853 126.334 17.888C125.843 18.08 125.31 18.176 124.734 18.176C124.361 18.176 124.003 18.1333 123.662 18.048C123.331 17.9627 123.043 17.8293 122.798 17.648C122.553 17.4667 122.355 17.232 122.206 16.944C122.067 16.6453 121.998 16.288 121.998 15.872C121.998 15.4027 122.078 15.0187 122.238 14.72C122.398 14.4213 122.606 14.1813 122.862 14C123.129 13.808 123.427 13.664 123.758 13.568C124.099 13.472 124.446 13.392 124.798 13.328C125.171 13.2533 125.523 13.2 125.854 13.168C126.195 13.1253 126.494 13.072 126.75 13.008C127.006 12.9333 127.209 12.832 127.358 12.704C127.507 12.5653 127.582 12.368 127.582 12.112C127.582 11.8133 127.523 11.5733 127.406 11.392C127.299 11.2107 127.155 11.072 126.974 10.976C126.803 10.88 126.606 10.816 126.382 10.784C126.169 10.752 125.955 10.736 125.742 10.736C125.166 10.736 124.686 10.848 124.302 11.072C123.918 11.2853 123.71 11.696 123.678 12.304H122.318C122.339 11.792 122.446 11.36 122.638 11.008C122.83 10.656 123.086 10.3733 123.406 10.16C123.726 9.936 124.089 9.776 124.494 9.68C124.91 9.584 125.353 9.536 125.822 9.536C126.195 9.536 126.563 9.56267 126.926 9.616C127.299 9.66933 127.635 9.78133 127.934 9.952C128.233 10.112 128.473 10.3413 128.654 10.64C128.835 10.9387 128.926 11.328 128.926 11.808V16.064C128.926 16.384 128.942 16.6187 128.974 16.768C129.017 16.9173 129.145 16.992 129.358 16.992C129.475 16.992 129.614 16.9653 129.774 16.912V17.968ZM127.566 13.728C127.395 13.856 127.171 13.952 126.894 14.016C126.617 14.0693 126.323 14.1173 126.014 14.16C125.715 14.192 125.411 14.2347 125.102 14.288C124.793 14.3307 124.515 14.4053 124.27 14.512C124.025 14.6187 123.822 14.7733 123.662 14.976C123.513 15.168 123.438 15.4347 123.438 15.776C123.438 16 123.481 16.192 123.566 16.352C123.662 16.5013 123.779 16.624 123.918 16.72C124.067 16.816 124.238 16.8853 124.43 16.928C124.622 16.9707 124.825 16.992 125.038 16.992C125.486 16.992 125.87 16.9333 126.19 16.816C126.51 16.688 126.771 16.5333 126.974 16.352C127.177 16.16 127.326 15.9573 127.422 15.744C127.518 15.52 127.566 15.312 127.566 15.12V13.728ZM131.872 15.392H130.512C130.533 15.904 130.64 16.3413 130.832 16.704C131.024 17.056 131.28 17.344 131.6 17.568C131.92 17.7813 132.288 17.936 132.704 18.032C133.12 18.128 133.557 18.176 134.016 18.176C134.432 18.176 134.848 18.1333 135.264 18.048C135.69 17.9733 136.069 17.8347 136.4 17.632C136.741 17.4293 137.013 17.1627 137.216 16.832C137.429 16.5013 137.536 16.0853 137.536 15.584C137.536 15.1893 137.456 14.8587 137.296 14.592C137.146 14.3253 136.944 14.1067 136.688 13.936C136.442 13.7547 136.154 13.6107 135.824 13.504C135.504 13.3973 135.173 13.3067 134.832 13.232C134.512 13.1573 134.192 13.088 133.872 13.024C133.552 12.9493 133.264 12.864 133.008 12.768C132.752 12.6613 132.538 12.5333 132.368 12.384C132.208 12.224 132.128 12.0267 132.128 11.792C132.128 11.5787 132.181 11.408 132.288 11.28C132.394 11.1413 132.533 11.0347 132.704 10.96C132.874 10.8747 133.061 10.816 133.264 10.784C133.477 10.752 133.685 10.736 133.888 10.736C134.112 10.736 134.33 10.7627 134.544 10.816C134.768 10.8587 134.97 10.9333 135.152 11.04C135.333 11.1467 135.482 11.2907 135.6 11.472C135.717 11.6427 135.786 11.8613 135.808 12.128H137.168C137.136 11.6267 137.029 11.2107 136.848 10.88C136.666 10.5387 136.421 10.272 136.112 10.08C135.813 9.87733 135.466 9.73867 135.072 9.664C134.677 9.57867 134.245 9.536 133.776 9.536C133.413 9.536 133.045 9.584 132.672 9.68C132.309 9.76533 131.978 9.904 131.68 10.096C131.392 10.2773 131.152 10.5173 130.96 10.816C130.778 11.1147 130.688 11.472 130.688 11.888C130.688 12.4213 130.821 12.8373 131.088 13.136C131.354 13.4347 131.685 13.6693 132.08 13.84C132.485 14 132.922 14.128 133.392 14.224C133.861 14.3093 134.293 14.4107 134.688 14.528C135.093 14.6347 135.429 14.7787 135.696 14.96C135.962 15.1413 136.096 15.408 136.096 15.76C136.096 16.016 136.032 16.2293 135.904 16.4C135.776 16.56 135.61 16.6827 135.408 16.768C135.216 16.8533 135.002 16.912 134.768 16.944C134.533 16.976 134.309 16.992 134.096 16.992C133.818 16.992 133.546 16.9653 133.28 16.912C133.024 16.8587 132.789 16.7733 132.576 16.656C132.373 16.528 132.208 16.3627 132.08 16.16C131.952 15.9467 131.882 15.6907 131.872 15.392ZM139.872 15.392H138.512C138.533 15.904 138.64 16.3413 138.832 16.704C139.024 17.056 139.28 17.344 139.6 17.568C139.92 17.7813 140.288 17.936 140.704 18.032C141.12 18.128 141.557 18.176 142.016 18.176C142.432 18.176 142.848 18.1333 143.264 18.048C143.69 17.9733 144.069 17.8347 144.4 17.632C144.741 17.4293 145.013 17.1627 145.216 16.832C145.429 16.5013 145.536 16.0853 145.536 15.584C145.536 15.1893 145.456 14.8587 145.296 14.592C145.146 14.3253 144.944 14.1067 144.688 13.936C144.442 13.7547 144.154 13.6107 143.824 13.504C143.504 13.3973 143.173 13.3067 142.832 13.232C142.512 13.1573 142.192 13.088 141.872 13.024C141.552 12.9493 141.264 12.864 141.008 12.768C140.752 12.6613 140.538 12.5333 140.368 12.384C140.208 12.224 140.128 12.0267 140.128 11.792C140.128 11.5787 140.181 11.408 140.288 11.28C140.394 11.1413 140.533 11.0347 140.704 10.96C140.874 10.8747 141.061 10.816 141.264 10.784C141.477 10.752 141.685 10.736 141.888 10.736C142.112 10.736 142.33 10.7627 142.544 10.816C142.768 10.8587 142.97 10.9333 143.152 11.04C143.333 11.1467 143.482 11.2907 143.6 11.472C143.717 11.6427 143.786 11.8613 143.808 12.128H145.168C145.136 11.6267 145.029 11.2107 144.848 10.88C144.666 10.5387 144.421 10.272 144.112 10.08C143.813 9.87733 143.466 9.73867 143.072 9.664C142.677 9.57867 142.245 9.536 141.776 9.536C141.413 9.536 141.045 9.584 140.672 9.68C140.309 9.76533 139.978 9.904 139.68 10.096C139.392 10.2773 139.152 10.5173 138.96 10.816C138.778 11.1147 138.688 11.472 138.688 11.888C138.688 12.4213 138.821 12.8373 139.088 13.136C139.354 13.4347 139.685 13.6693 140.08 13.84C140.485 14 140.922 14.128 141.392 14.224C141.861 14.3093 142.293 14.4107 142.688 14.528C143.093 14.6347 143.429 14.7787 143.696 14.96C143.962 15.1413 144.096 15.408 144.096 15.76C144.096 16.016 144.032 16.2293 143.904 16.4C143.776 16.56 143.61 16.6827 143.408 16.768C143.216 16.8533 143.002 16.912 142.768 16.944C142.533 16.976 142.309 16.992 142.096 16.992C141.818 16.992 141.546 16.9653 141.28 16.912C141.024 16.8587 140.789 16.7733 140.576 16.656C140.373 16.528 140.208 16.3627 140.08 16.16C139.952 15.9467 139.882 15.6907 139.872 15.392ZM148.48 8.24V6.576H147.12V8.24H148.48ZM147.12 9.728V18H148.48V9.728H147.12ZM151.579 13.872C151.579 13.3707 151.643 12.928 151.771 12.544C151.909 12.1493 152.096 11.8187 152.331 11.552C152.565 11.2853 152.837 11.0827 153.147 10.944C153.467 10.8053 153.803 10.736 154.155 10.736C154.507 10.736 154.837 10.8053 155.147 10.944C155.467 11.0827 155.744 11.2853 155.979 11.552C156.213 11.8187 156.395 12.1493 156.523 12.544C156.661 12.928 156.731 13.3707 156.731 13.872C156.731 14.3733 156.661 14.8213 156.523 15.216C156.395 15.6 156.213 15.9253 155.979 16.192C155.744 16.448 155.467 16.6453 155.147 16.784C154.837 16.9227 154.507 16.992 154.155 16.992C153.803 16.992 153.467 16.9227 153.147 16.784C152.837 16.6453 152.565 16.448 152.331 16.192C152.096 15.9253 151.909 15.6 151.771 15.216C151.643 14.8213 151.579 14.3733 151.579 13.872ZM150.139 13.872C150.139 14.48 150.224 15.0453 150.395 15.568C150.565 16.0907 150.821 16.5493 151.163 16.944C151.504 17.328 151.925 17.632 152.427 17.856C152.928 18.0693 153.504 18.176 154.155 18.176C154.816 18.176 155.392 18.0693 155.883 17.856C156.384 17.632 156.805 17.328 157.147 16.944C157.488 16.5493 157.744 16.0907 157.915 15.568C158.085 15.0453 158.171 14.48 158.171 13.872C158.171 13.264 158.085 12.6987 157.915 12.176C157.744 11.6427 157.488 11.184 157.147 10.8C156.805 10.4053 156.384 10.096 155.883 9.872C155.392 9.648 154.816 9.536 154.155 9.536C153.504 9.536 152.928 9.648 152.427 9.872C151.925 10.096 151.504 10.4053 151.163 10.8C150.821 11.184 150.565 11.6427 150.395 12.176C150.224 12.6987 150.139 13.264 150.139 13.872ZM159.774 9.728V18H161.134V13.328C161.134 12.9547 161.182 12.6133 161.278 12.304C161.385 11.984 161.539 11.7067 161.742 11.472C161.945 11.2373 162.195 11.056 162.494 10.928C162.803 10.8 163.166 10.736 163.582 10.736C164.105 10.736 164.515 10.8853 164.814 11.184C165.113 11.4827 165.262 11.888 165.262 12.4V18H166.622V12.56C166.622 12.112 166.574 11.7067 166.478 11.344C166.393 10.9707 166.238 10.6507 166.014 10.384C165.79 10.1173 165.497 9.90933 165.134 9.76C164.771 9.61067 164.318 9.536 163.774 9.536C162.547 9.536 161.651 10.0373 161.086 11.04H161.054V9.728H159.774Z" fill="black"/>
</g>
</svg>
