<svg width="143" height="206" viewBox="0 0 143 206" fill="none" xmlns="http://www.w3.org/2000/svg">
<g id="menu">
<g id="Frame 11">
<g id="menu item">
<g id="Frame 13">
<rect id="Rectangle 23" y="31" width="31" height="6" transform="rotate(-90 0 31)" fill="#00D1CD"/>
<path id="About flasq" d="M20.98 17.98L22.84 12.74H22.88L24.68 17.98H20.98ZM21.28 9.22L15.88 23.5H19.04L20.16 20.32H25.5L26.58 23.5H29.84L24.5 9.22H21.28ZM38.3514 18.34C38.3514 18.7667 38.3047 19.18 38.2114 19.58C38.1181 19.98 37.9714 20.3333 37.7714 20.64C37.5714 20.9467 37.3181 21.1933 37.0114 21.38C36.7181 21.5533 36.3581 21.64 35.9314 21.64C35.5181 21.64 35.1581 21.5533 34.8514 21.38C34.5447 21.1933 34.2914 20.9467 34.0914 20.64C33.8914 20.3333 33.7447 19.98 33.6514 19.58C33.5581 19.18 33.5114 18.7667 33.5114 18.34C33.5114 17.9 33.5581 17.48 33.6514 17.08C33.7447 16.68 33.8914 16.3267 34.0914 16.02C34.2914 15.7133 34.5447 15.4733 34.8514 15.3C35.1581 15.1133 35.5181 15.02 35.9314 15.02C36.3581 15.02 36.7181 15.1133 37.0114 15.3C37.3181 15.4733 37.5714 15.7133 37.7714 16.02C37.9714 16.3267 38.1181 16.68 38.2114 17.08C38.3047 17.48 38.3514 17.9 38.3514 18.34ZM30.7714 9.22V23.5H33.4714V22.18H33.5114C33.8181 22.7533 34.2714 23.16 34.8714 23.4C35.4714 23.64 36.1514 23.76 36.9114 23.76C37.4314 23.76 37.9447 23.6533 38.4514 23.44C38.9581 23.2267 39.4114 22.9 39.8114 22.46C40.2247 22.02 40.5581 21.46 40.8114 20.78C41.0647 20.0867 41.1914 19.2667 41.1914 18.32C41.1914 17.3733 41.0647 16.56 40.8114 15.88C40.5581 15.1867 40.2247 14.62 39.8114 14.18C39.4114 13.74 38.9581 13.4133 38.4514 13.2C37.9447 12.9867 37.4314 12.88 36.9114 12.88C36.2714 12.88 35.6514 13.0067 35.0514 13.26C34.4647 13.5 33.9981 13.8867 33.6514 14.42H33.6114V9.22H30.7714ZM45.518 18.34C45.518 17.9267 45.558 17.52 45.638 17.12C45.718 16.72 45.8513 16.3667 46.038 16.06C46.238 15.7533 46.498 15.5067 46.818 15.32C47.138 15.12 47.538 15.02 48.018 15.02C48.498 15.02 48.898 15.12 49.218 15.32C49.5513 15.5067 49.8113 15.7533 49.998 16.06C50.198 16.3667 50.338 16.72 50.418 17.12C50.498 17.52 50.538 17.9267 50.538 18.34C50.538 18.7533 50.498 19.16 50.418 19.56C50.338 19.9467 50.198 20.3 49.998 20.62C49.8113 20.9267 49.5513 21.1733 49.218 21.36C48.898 21.5467 48.498 21.64 48.018 21.64C47.538 21.64 47.138 21.5467 46.818 21.36C46.498 21.1733 46.238 20.9267 46.038 20.62C45.8513 20.3 45.718 19.9467 45.638 19.56C45.558 19.16 45.518 18.7533 45.518 18.34ZM42.678 18.34C42.678 19.1667 42.8046 19.9133 43.058 20.58C43.3113 21.2467 43.6713 21.82 44.138 22.3C44.6046 22.7667 45.1646 23.1267 45.818 23.38C46.4713 23.6333 47.2046 23.76 48.018 23.76C48.8313 23.76 49.5646 23.6333 50.218 23.38C50.8846 23.1267 51.4513 22.7667 51.918 22.3C52.3846 21.82 52.7446 21.2467 52.998 20.58C53.2513 19.9133 53.378 19.1667 53.378 18.34C53.378 17.5133 53.2513 16.7667 52.998 16.1C52.7446 15.42 52.3846 14.8467 51.918 14.38C51.4513 13.9 50.8846 13.5333 50.218 13.28C49.5646 13.0133 48.8313 12.88 48.018 12.88C47.2046 12.88 46.4713 13.0133 45.818 13.28C45.1646 13.5333 44.6046 13.9 44.138 14.38C43.6713 14.8467 43.3113 15.42 43.058 16.1C42.8046 16.7667 42.678 17.5133 42.678 18.34ZM64.9245 23.5V13.16H62.0845V18.58C62.0845 19.6333 61.9112 20.3933 61.5645 20.86C61.2179 21.3133 60.6579 21.54 59.8845 21.54C59.2045 21.54 58.7312 21.3333 58.4645 20.92C58.1979 20.4933 58.0645 19.8533 58.0645 19V13.16H55.2245V19.52C55.2245 20.16 55.2779 20.7467 55.3845 21.28C55.5045 21.8 55.7045 22.2467 55.9845 22.62C56.2645 22.98 56.6445 23.26 57.1245 23.46C57.6179 23.66 58.2445 23.76 59.0045 23.76C59.6045 23.76 60.1912 23.6267 60.7645 23.36C61.3379 23.0933 61.8045 22.66 62.1645 22.06H62.2245V23.5H64.9245ZM70.68 13.16V10.06H67.84V13.16H66.12V15.06H67.84V21.16C67.84 21.68 67.9267 22.1 68.1 22.42C68.2733 22.74 68.5067 22.9867 68.8 23.16C69.1067 23.3333 69.4533 23.4467 69.84 23.5C70.24 23.5667 70.66 23.6 71.1 23.6C71.38 23.6 71.6667 23.5933 71.96 23.58C72.2533 23.5667 72.52 23.54 72.76 23.5V21.3C72.6267 21.3267 72.4867 21.3467 72.34 21.36C72.1933 21.3733 72.04 21.38 71.88 21.38C71.4 21.38 71.08 21.3 70.92 21.14C70.76 20.98 70.68 20.66 70.68 20.18V15.06H72.76V13.16H70.68ZM80.2977 15.06V23.5H83.1377V15.06H85.0977V13.16H83.1377V12.54C83.1377 12.1133 83.2177 11.8133 83.3777 11.64C83.551 11.4533 83.831 11.36 84.2177 11.36C84.5777 11.36 84.9243 11.38 85.2577 11.42V9.3C85.0177 9.28667 84.771 9.27333 84.5177 9.26C84.2643 9.23333 84.011 9.22 83.7577 9.22C82.5977 9.22 81.731 9.51333 81.1577 10.1C80.5843 10.6867 80.2977 11.44 80.2977 12.36V13.16H78.5977V15.06H80.2977ZM86.8177 9.22V23.5H89.6577V9.22H86.8177ZM91.7842 16.34C91.8242 15.6733 91.9909 15.12 92.2842 14.68C92.5776 14.24 92.9509 13.8867 93.4042 13.62C93.8576 13.3533 94.3642 13.1667 94.9242 13.06C95.4976 12.94 96.0709 12.88 96.6442 12.88C97.1642 12.88 97.6909 12.92 98.2242 13C98.7576 13.0667 99.2442 13.2067 99.6842 13.42C100.124 13.6333 100.484 13.9333 100.764 14.32C101.044 14.6933 101.184 15.1933 101.184 15.82V21.2C101.184 21.6667 101.211 22.1133 101.264 22.54C101.318 22.9667 101.411 23.2867 101.544 23.5H98.6642C98.6109 23.34 98.5642 23.18 98.5242 23.02C98.4976 22.8467 98.4776 22.6733 98.4642 22.5C98.0109 22.9667 97.4776 23.2933 96.8642 23.48C96.2509 23.6667 95.6242 23.76 94.9842 23.76C94.4909 23.76 94.0309 23.7 93.6042 23.58C93.1776 23.46 92.8042 23.2733 92.4842 23.02C92.1642 22.7667 91.9109 22.4467 91.7242 22.06C91.5509 21.6733 91.4642 21.2133 91.4642 20.68C91.4642 20.0933 91.5642 19.6133 91.7642 19.24C91.9776 18.8533 92.2442 18.5467 92.5642 18.32C92.8976 18.0933 93.2709 17.9267 93.6842 17.82C94.1109 17.7 94.5376 17.6067 94.9642 17.54C95.3909 17.4733 95.8109 17.42 96.2242 17.38C96.6376 17.34 97.0042 17.28 97.3242 17.2C97.6442 17.12 97.8976 17.0067 98.0842 16.86C98.2709 16.7 98.3576 16.4733 98.3442 16.18C98.3442 15.8733 98.2909 15.6333 98.1842 15.46C98.0909 15.2733 97.9576 15.1333 97.7842 15.04C97.6242 14.9333 97.4309 14.8667 97.2042 14.84C96.9909 14.8 96.7576 14.78 96.5042 14.78C95.9442 14.78 95.5042 14.9 95.1842 15.14C94.8642 15.38 94.6776 15.78 94.6242 16.34H91.7842ZM98.3442 18.44C98.2242 18.5467 98.0709 18.6333 97.8842 18.7C97.7109 18.7533 97.5176 18.8 97.3042 18.84C97.1042 18.88 96.8909 18.9133 96.6642 18.94C96.4376 18.9667 96.2109 19 95.9842 19.04C95.7709 19.08 95.5576 19.1333 95.3442 19.2C95.1442 19.2667 94.9642 19.36 94.8042 19.48C94.6576 19.5867 94.5376 19.7267 94.4442 19.9C94.3509 20.0733 94.3042 20.2933 94.3042 20.56C94.3042 20.8133 94.3509 21.0267 94.4442 21.2C94.5376 21.3733 94.6642 21.5133 94.8242 21.62C94.9842 21.7133 95.1709 21.78 95.3842 21.82C95.5976 21.86 95.8176 21.88 96.0442 21.88C96.6042 21.88 97.0376 21.7867 97.3442 21.6C97.6509 21.4133 97.8776 21.1933 98.0242 20.94C98.1709 20.6733 98.2576 20.4067 98.2842 20.14C98.3242 19.8733 98.3442 19.66 98.3442 19.5V18.44ZM105.589 20.14H102.889C102.915 20.8333 103.069 21.4133 103.349 21.88C103.642 22.3333 104.009 22.7 104.449 22.98C104.902 23.26 105.415 23.46 105.989 23.58C106.562 23.7 107.149 23.76 107.749 23.76C108.335 23.76 108.909 23.7 109.469 23.58C110.042 23.4733 110.549 23.28 110.989 23C111.429 22.72 111.782 22.3533 112.049 21.9C112.329 21.4333 112.469 20.86 112.469 20.18C112.469 19.7 112.375 19.3 112.189 18.98C112.002 18.6467 111.755 18.3733 111.449 18.16C111.142 17.9333 110.789 17.7533 110.389 17.62C110.002 17.4867 109.602 17.3733 109.189 17.28C108.789 17.1867 108.395 17.1 108.009 17.02C107.622 16.94 107.275 16.8533 106.969 16.76C106.675 16.6533 106.435 16.52 106.249 16.36C106.062 16.2 105.969 15.9933 105.969 15.74C105.969 15.5267 106.022 15.36 106.129 15.24C106.235 15.1067 106.362 15.0067 106.509 14.94C106.669 14.8733 106.842 14.8333 107.029 14.82C107.215 14.7933 107.389 14.78 107.549 14.78C108.055 14.78 108.495 14.88 108.869 15.08C109.242 15.2667 109.449 15.6333 109.489 16.18H112.189C112.135 15.54 111.969 15.0133 111.689 14.6C111.422 14.1733 111.082 13.8333 110.669 13.58C110.255 13.3267 109.782 13.1467 109.249 13.04C108.729 12.9333 108.189 12.88 107.629 12.88C107.069 12.88 106.522 12.9333 105.989 13.04C105.455 13.1333 104.975 13.3067 104.549 13.56C104.122 13.8 103.775 14.1333 103.509 14.56C103.255 14.9867 103.129 15.5333 103.129 16.2C103.129 16.6533 103.222 17.04 103.409 17.36C103.595 17.6667 103.842 17.9267 104.149 18.14C104.455 18.34 104.802 18.5067 105.189 18.64C105.589 18.76 105.995 18.8667 106.409 18.96C107.422 19.1733 108.209 19.3867 108.769 19.6C109.342 19.8133 109.629 20.1333 109.629 20.56C109.629 20.8133 109.569 21.0267 109.449 21.2C109.329 21.36 109.175 21.4933 108.989 21.6C108.815 21.6933 108.615 21.7667 108.389 21.82C108.175 21.86 107.969 21.88 107.769 21.88C107.489 21.88 107.215 21.8467 106.949 21.78C106.695 21.7133 106.469 21.6133 106.269 21.48C106.069 21.3333 105.902 21.1533 105.769 20.94C105.649 20.7133 105.589 20.4467 105.589 20.14ZM116.531 18.34C116.531 17.9133 116.571 17.5067 116.651 17.12C116.744 16.72 116.891 16.3667 117.091 16.06C117.291 15.74 117.551 15.4867 117.871 15.3C118.191 15.1133 118.584 15.02 119.051 15.02C119.491 15.02 119.864 15.12 120.171 15.32C120.491 15.52 120.744 15.78 120.931 16.1C121.117 16.42 121.251 16.78 121.331 17.18C121.424 17.58 121.471 17.98 121.471 18.38C121.471 18.8067 121.424 19.22 121.331 19.62C121.251 20.0067 121.111 20.3533 120.911 20.66C120.724 20.9533 120.471 21.1933 120.151 21.38C119.844 21.5533 119.457 21.64 118.991 21.64C118.524 21.64 118.131 21.5467 117.811 21.36C117.504 21.1733 117.251 20.9267 117.051 20.62C116.864 20.3 116.731 19.9467 116.651 19.56C116.571 19.16 116.531 18.7533 116.531 18.34ZM124.211 27.12V13.16H121.511V14.48H121.471C121.151 13.9067 120.704 13.5 120.131 13.26C119.571 13.0067 118.971 12.88 118.331 12.88C117.544 12.88 116.857 13.0333 116.271 13.34C115.697 13.6467 115.217 14.06 114.831 14.58C114.444 15.0867 114.157 15.6733 113.971 16.34C113.784 17.0067 113.691 17.6933 113.691 18.4C113.691 19.4 113.831 20.2467 114.111 20.94C114.391 21.62 114.744 22.1733 115.171 22.6C115.597 23.0133 116.064 23.3133 116.571 23.5C117.091 23.6733 117.591 23.76 118.071 23.76C118.711 23.76 119.331 23.64 119.931 23.4C120.531 23.16 120.997 22.76 121.331 22.2H121.371V27.12H124.211Z" fill="black"/>
</g>
</g>
</g>
<g id="menu_2">
<g id="menu item_2">
<g id="icon">
<g id="light-bulb">
<path id="Vector" d="M9.663 67H14.336M12 53V54M18.364 55.636L17.657 56.343M21 62H20M4 62H3M6.343 56.343L5.636 55.636M8.464 65.536C7.76487 64.8367 7.2888 63.9458 7.09598 62.9759C6.90316 62.006 7.00225 61.0008 7.38073 60.0872C7.75921 59.1737 8.40007 58.3928 9.22229 57.8435C10.0445 57.2941 11.0111 57.0009 12 57.0009C12.9889 57.0009 13.9555 57.2941 14.7777 57.8435C15.5999 58.3928 16.2408 59.1737 16.6193 60.0872C16.9977 61.0008 17.0968 62.006 16.904 62.9759C16.7112 63.9458 16.2351 64.8367 15.536 65.536L14.988 66.083C14.6747 66.3963 14.4262 66.7683 14.2567 67.1777C14.0872 67.5871 13.9999 68.0259 14 68.469V69C14 69.5304 13.7893 70.0391 13.4142 70.4142C13.0391 70.7893 12.5304 71 12 71C11.4696 71 10.9609 70.7893 10.5858 70.4142C10.2107 70.0391 10 69.5304 10 69V68.469C10 67.574 9.644 66.715 9.012 66.083L8.464 65.536Z" stroke="#FA9F62" stroke-width="2" stroke-linecap="round" stroke-linejoin="round"/>
</g>
</g>
<path id="The history" d="M42.84 57.856V68H44.36V57.856H48.168V56.576H39.032V57.856H42.84ZM49.2115 56.576V68H50.5715V63.328C50.5715 62.9547 50.6195 62.6133 50.7155 62.304C50.8222 61.984 50.9768 61.7067 51.1795 61.472C51.3822 61.2373 51.6328 61.056 51.9315 60.928C52.2408 60.8 52.6035 60.736 53.0195 60.736C53.5422 60.736 53.9528 60.8853 54.2515 61.184C54.5502 61.4827 54.6995 61.888 54.6995 62.4V68H56.0595V62.56C56.0595 62.112 56.0115 61.7067 55.9155 61.344C55.8302 60.9707 55.6755 60.6507 55.4515 60.384C55.2275 60.1173 54.9342 59.9093 54.5715 59.76C54.2088 59.6107 53.7555 59.536 53.2115 59.536C52.9662 59.536 52.7102 59.5627 52.4435 59.616C52.1875 59.6693 51.9368 59.7547 51.6915 59.872C51.4568 59.9787 51.2435 60.1227 51.0515 60.304C50.8595 60.4747 50.7102 60.688 50.6035 60.944H50.5715V56.576H49.2115ZM63.8461 63.072H59.0941C59.1155 62.752 59.1848 62.4533 59.3021 62.176C59.4195 61.888 59.5795 61.6373 59.7821 61.424C59.9848 61.2107 60.2248 61.0453 60.5021 60.928C60.7901 60.8 61.1101 60.736 61.4621 60.736C61.8035 60.736 62.1128 60.8 62.3901 60.928C62.6781 61.0453 62.9235 61.2107 63.1261 61.424C63.3395 61.6267 63.5048 61.872 63.6221 62.16C63.7501 62.448 63.8248 62.752 63.8461 63.072ZM65.1581 65.376H63.8141C63.6968 65.92 63.4515 66.3253 63.0781 66.592C62.7155 66.8587 62.2461 66.992 61.6701 66.992C61.2221 66.992 60.8328 66.9173 60.5021 66.768C60.1715 66.6187 59.8995 66.4213 59.6861 66.176C59.4728 65.92 59.3181 65.632 59.2221 65.312C59.1261 64.9813 59.0835 64.6347 59.0941 64.272H65.2861C65.3075 63.7707 65.2595 63.2427 65.1421 62.688C65.0355 62.1333 64.8328 61.6213 64.5341 61.152C64.2461 60.6827 63.8568 60.2987 63.3661 60C62.8861 59.6907 62.2781 59.536 61.5421 59.536C60.9768 59.536 60.4541 59.6427 59.9741 59.856C59.5048 60.0693 59.0941 60.368 58.7421 60.752C58.4008 61.136 58.1341 61.5893 57.9421 62.112C57.7501 62.6347 57.6541 63.2107 57.6541 63.84C57.6755 64.4693 57.7661 65.0507 57.9261 65.584C58.0968 66.1173 58.3475 66.576 58.6781 66.96C59.0088 67.344 59.4141 67.6427 59.8941 67.856C60.3848 68.0693 60.9608 68.176 61.6221 68.176C62.5608 68.176 63.3395 67.9413 63.9581 67.472C64.5768 67.0027 64.9768 66.304 65.1581 65.376ZM71.149 56.576V68H72.509V63.328C72.509 62.9547 72.557 62.6133 72.653 62.304C72.7597 61.984 72.9143 61.7067 73.117 61.472C73.3197 61.2373 73.5703 61.056 73.869 60.928C74.1783 60.8 74.541 60.736 74.957 60.736C75.4797 60.736 75.8903 60.8853 76.189 61.184C76.4877 61.4827 76.637 61.888 76.637 62.4V68H77.997V62.56C77.997 62.112 77.949 61.7067 77.853 61.344C77.7677 60.9707 77.613 60.6507 77.389 60.384C77.165 60.1173 76.8717 59.9093 76.509 59.76C76.1463 59.6107 75.693 59.536 75.149 59.536C74.9037 59.536 74.6477 59.5627 74.381 59.616C74.125 59.6693 73.8743 59.7547 73.629 59.872C73.3943 59.9787 73.181 60.1227 72.989 60.304C72.797 60.4747 72.6477 60.688 72.541 60.944H72.509V56.576H71.149ZM81.4796 58.24V56.576H80.1196V58.24H81.4796ZM80.1196 59.728V68H81.4796V59.728H80.1196ZM84.4185 65.392H83.0585C83.0798 65.904 83.1865 66.3413 83.3785 66.704C83.5705 67.056 83.8265 67.344 84.1465 67.568C84.4665 67.7813 84.8345 67.936 85.2505 68.032C85.6665 68.128 86.1038 68.176 86.5625 68.176C86.9785 68.176 87.3945 68.1333 87.8105 68.048C88.2372 67.9733 88.6158 67.8347 88.9465 67.632C89.2878 67.4293 89.5598 67.1627 89.7625 66.832C89.9758 66.5013 90.0825 66.0853 90.0825 65.584C90.0825 65.1893 90.0025 64.8587 89.8425 64.592C89.6932 64.3253 89.4905 64.1067 89.2345 63.936C88.9892 63.7547 88.7012 63.6107 88.3705 63.504C88.0505 63.3973 87.7198 63.3067 87.3785 63.232C87.0585 63.1573 86.7385 63.088 86.4185 63.024C86.0985 62.9493 85.8105 62.864 85.5545 62.768C85.2985 62.6613 85.0852 62.5333 84.9145 62.384C84.7545 62.224 84.6745 62.0267 84.6745 61.792C84.6745 61.5787 84.7278 61.408 84.8345 61.28C84.9412 61.1413 85.0798 61.0347 85.2505 60.96C85.4212 60.8747 85.6078 60.816 85.8105 60.784C86.0238 60.752 86.2318 60.736 86.4345 60.736C86.6585 60.736 86.8772 60.7627 87.0905 60.816C87.3145 60.8587 87.5172 60.9333 87.6985 61.04C87.8798 61.1467 88.0292 61.2907 88.1465 61.472C88.2638 61.6427 88.3332 61.8613 88.3545 62.128H89.7145C89.6825 61.6267 89.5758 61.2107 89.3945 60.88C89.2132 60.5387 88.9678 60.272 88.6585 60.08C88.3598 59.8773 88.0132 59.7387 87.6185 59.664C87.2238 59.5787 86.7918 59.536 86.3225 59.536C85.9598 59.536 85.5918 59.584 85.2185 59.68C84.8558 59.7653 84.5252 59.904 84.2265 60.096C83.9385 60.2773 83.6985 60.5173 83.5065 60.816C83.3252 61.1147 83.2345 61.472 83.2345 61.888C83.2345 62.4213 83.3678 62.8373 83.6345 63.136C83.9012 63.4347 84.2318 63.6693 84.6265 63.84C85.0318 64 85.4692 64.128 85.9385 64.224C86.4078 64.3093 86.8398 64.4107 87.2345 64.528C87.6398 64.6347 87.9758 64.7787 88.2425 64.96C88.5092 65.1413 88.6425 65.408 88.6425 65.76C88.6425 66.016 88.5785 66.2293 88.4505 66.4C88.3225 66.56 88.1572 66.6827 87.9545 66.768C87.7625 66.8533 87.5492 66.912 87.3145 66.944C87.0798 66.976 86.8558 66.992 86.6425 66.992C86.3652 66.992 86.0932 66.9653 85.8265 66.912C85.5705 66.8587 85.3358 66.7733 85.1225 66.656C84.9198 66.528 84.7545 66.3627 84.6265 66.16C84.4985 65.9467 84.4292 65.6907 84.4185 65.392ZM93.4745 59.728V57.248H92.1145V59.728H90.7065V60.928H92.1145V66.192C92.1145 66.576 92.1518 66.8853 92.2265 67.12C92.3012 67.3547 92.4132 67.536 92.5625 67.664C92.7225 67.792 92.9252 67.8827 93.1705 67.936C93.4265 67.9787 93.7305 68 94.0825 68H95.1225V66.8H94.4985C94.2852 66.8 94.1092 66.7947 93.9705 66.784C93.8425 66.7627 93.7412 66.7253 93.6665 66.672C93.5918 66.6187 93.5385 66.544 93.5065 66.448C93.4852 66.352 93.4745 66.224 93.4745 66.064V60.928H95.1225V59.728H93.4745ZM97.6254 63.872C97.6254 63.3707 97.6894 62.928 97.8174 62.544C97.956 62.1493 98.1427 61.8187 98.3774 61.552C98.612 61.2853 98.884 61.0827 99.1934 60.944C99.5134 60.8053 99.8494 60.736 100.201 60.736C100.553 60.736 100.884 60.8053 101.193 60.944C101.513 61.0827 101.791 61.2853 102.025 61.552C102.26 61.8187 102.441 62.1493 102.569 62.544C102.708 62.928 102.777 63.3707 102.777 63.872C102.777 64.3733 102.708 64.8213 102.569 65.216C102.441 65.6 102.26 65.9253 102.025 66.192C101.791 66.448 101.513 66.6453 101.193 66.784C100.884 66.9227 100.553 66.992 100.201 66.992C99.8494 66.992 99.5134 66.9227 99.1934 66.784C98.884 66.6453 98.612 66.448 98.3774 66.192C98.1427 65.9253 97.956 65.6 97.8174 65.216C97.6894 64.8213 97.6254 64.3733 97.6254 63.872ZM96.1854 63.872C96.1854 64.48 96.2707 65.0453 96.4414 65.568C96.612 66.0907 96.868 66.5493 97.2094 66.944C97.5507 67.328 97.972 67.632 98.4734 67.856C98.9747 68.0693 99.5507 68.176 100.201 68.176C100.863 68.176 101.439 68.0693 101.929 67.856C102.431 67.632 102.852 67.328 103.193 66.944C103.535 66.5493 103.791 66.0907 103.961 65.568C104.132 65.0453 104.217 64.48 104.217 63.872C104.217 63.264 104.132 62.6987 103.961 62.176C103.791 61.6427 103.535 61.184 103.193 60.8C102.852 60.4053 102.431 60.096 101.929 59.872C101.439 59.648 100.863 59.536 100.201 59.536C99.5507 59.536 98.9747 59.648 98.4734 59.872C97.972 60.096 97.5507 60.4053 97.2094 60.8C96.868 61.184 96.612 61.6427 96.4414 62.176C96.2707 62.6987 96.1854 63.264 96.1854 63.872ZM105.773 59.728V68H107.133V64.32C107.133 63.7867 107.186 63.3173 107.293 62.912C107.4 62.496 107.57 62.144 107.805 61.856C108.04 61.568 108.349 61.3493 108.733 61.2C109.117 61.0507 109.581 60.976 110.125 60.976V59.536C109.389 59.5147 108.781 59.664 108.301 59.984C107.821 60.304 107.416 60.8 107.085 61.472H107.053V59.728H105.773ZM114.397 69.104C114.237 69.5093 114.077 69.8507 113.917 70.128C113.768 70.4053 113.597 70.6293 113.405 70.8C113.224 70.9813 113.016 71.1093 112.781 71.184C112.557 71.2693 112.296 71.312 111.997 71.312C111.837 71.312 111.677 71.3013 111.517 71.28C111.357 71.2587 111.202 71.2213 111.053 71.168V69.92C111.17 69.9733 111.304 70.016 111.453 70.048C111.613 70.0907 111.746 70.112 111.853 70.112C112.13 70.112 112.36 70.0427 112.541 69.904C112.733 69.776 112.877 69.5893 112.973 69.344L113.533 67.952L110.253 59.728H111.789L114.205 66.496H114.237L116.557 59.728H117.997L114.397 69.104Z" fill="black"/>
</g>
</g>
<g id="menu_3">
<g id="menu item_3">
<g id="icon_2">
<g id="user-group">
<path id="Vector_2" d="M17 114H22V112C22 111.377 21.8057 110.769 21.4441 110.261C21.0826 109.753 20.5718 109.37 19.9827 109.166C19.3937 108.962 18.7556 108.946 18.1573 109.121C17.5589 109.296 17.03 109.653 16.644 110.143M17 114H7M17 114V112C17 111.344 16.874 110.717 16.644 110.143M16.644 110.143C16.2726 109.215 15.6318 108.419 14.804 107.859C13.9762 107.299 12.9996 106.999 12 106.999C11.0004 106.999 10.0238 107.299 9.196 107.859C8.36825 108.419 7.72736 109.215 7.356 110.143M7 114H2V112C2.00005 111.377 2.19434 110.769 2.55586 110.261C2.91739 109.753 3.42819 109.37 4.01725 109.166C4.60632 108.962 5.24438 108.946 5.84274 109.121C6.4411 109.296 6.97003 109.653 7.356 110.143M7 114V112C7 111.344 7.126 110.717 7.356 110.143M15 101C15 101.796 14.6839 102.559 14.1213 103.121C13.5587 103.684 12.7956 104 12 104C11.2044 104 10.4413 103.684 9.87868 103.121C9.31607 102.559 9 101.796 9 101C9 100.204 9.31607 99.4413 9.87868 98.8787C10.4413 98.3161 11.2044 98 12 98C12.7956 98 13.5587 98.3161 14.1213 98.8787C14.6839 99.4413 15 100.204 15 101ZM21 104C21 104.53 20.7893 105.039 20.4142 105.414C20.0391 105.789 19.5304 106 19 106C18.4696 106 17.9609 105.789 17.5858 105.414C17.2107 105.039 17 104.53 17 104C17 103.47 17.2107 102.961 17.5858 102.586C17.9609 102.211 18.4696 102 19 102C19.5304 102 20.0391 102.211 20.4142 102.586C20.7893 102.961 21 103.47 21 104ZM7 104C7 104.53 6.78929 105.039 6.41421 105.414C6.03914 105.789 5.53043 106 5 106C4.46957 106 3.96086 105.789 3.58579 105.414C3.21071 105.039 3 104.53 3 104C3 103.47 3.21071 102.961 3.58579 102.586C3.96086 102.211 4.46957 102 5 102C5.53043 102 6.03914 102.211 6.41421 102.586C6.78929 102.961 7 103.47 7 104Z" stroke="#F30067" stroke-width="2" stroke-linecap="round" stroke-linejoin="round"/>
</g>
</g>
<path id="The team" d="M42.84 101.856V112H44.36V101.856H48.168V100.576H39.032V101.856H42.84ZM49.2115 100.576V112H50.5715V107.328C50.5715 106.955 50.6195 106.613 50.7155 106.304C50.8222 105.984 50.9768 105.707 51.1795 105.472C51.3822 105.237 51.6328 105.056 51.9315 104.928C52.2408 104.8 52.6035 104.736 53.0195 104.736C53.5422 104.736 53.9528 104.885 54.2515 105.184C54.5502 105.483 54.6995 105.888 54.6995 106.4V112H56.0595V106.56C56.0595 106.112 56.0115 105.707 55.9155 105.344C55.8302 104.971 55.6755 104.651 55.4515 104.384C55.2275 104.117 54.9342 103.909 54.5715 103.76C54.2088 103.611 53.7555 103.536 53.2115 103.536C52.9662 103.536 52.7102 103.563 52.4435 103.616C52.1875 103.669 51.9368 103.755 51.6915 103.872C51.4568 103.979 51.2435 104.123 51.0515 104.304C50.8595 104.475 50.7102 104.688 50.6035 104.944H50.5715V100.576H49.2115ZM63.8461 107.072H59.0941C59.1155 106.752 59.1848 106.453 59.3021 106.176C59.4195 105.888 59.5795 105.637 59.7821 105.424C59.9848 105.211 60.2248 105.045 60.5021 104.928C60.7901 104.8 61.1101 104.736 61.4621 104.736C61.8035 104.736 62.1128 104.8 62.3901 104.928C62.6781 105.045 62.9235 105.211 63.1261 105.424C63.3395 105.627 63.5048 105.872 63.6221 106.16C63.7501 106.448 63.8248 106.752 63.8461 107.072ZM65.1581 109.376H63.8141C63.6968 109.92 63.4515 110.325 63.0781 110.592C62.7155 110.859 62.2461 110.992 61.6701 110.992C61.2221 110.992 60.8328 110.917 60.5021 110.768C60.1715 110.619 59.8995 110.421 59.6861 110.176C59.4728 109.92 59.3181 109.632 59.2221 109.312C59.1261 108.981 59.0835 108.635 59.0941 108.272H65.2861C65.3075 107.771 65.2595 107.243 65.1421 106.688C65.0355 106.133 64.8328 105.621 64.5341 105.152C64.2461 104.683 63.8568 104.299 63.3661 104C62.8861 103.691 62.2781 103.536 61.5421 103.536C60.9768 103.536 60.4541 103.643 59.9741 103.856C59.5048 104.069 59.0941 104.368 58.7421 104.752C58.4008 105.136 58.1341 105.589 57.9421 106.112C57.7501 106.635 57.6541 107.211 57.6541 107.84C57.6755 108.469 57.7661 109.051 57.9261 109.584C58.0968 110.117 58.3475 110.576 58.6781 110.96C59.0088 111.344 59.4141 111.643 59.8941 111.856C60.3848 112.069 60.9608 112.176 61.6221 112.176C62.5608 112.176 63.3395 111.941 63.9581 111.472C64.5768 111.003 64.9768 110.304 65.1581 109.376ZM73.037 103.728V101.248H71.677V103.728H70.269V104.928H71.677V110.192C71.677 110.576 71.7143 110.885 71.789 111.12C71.8637 111.355 71.9757 111.536 72.125 111.664C72.285 111.792 72.4877 111.883 72.733 111.936C72.989 111.979 73.293 112 73.645 112H74.685V110.8H74.061C73.8477 110.8 73.6717 110.795 73.533 110.784C73.405 110.763 73.3037 110.725 73.229 110.672C73.1543 110.619 73.101 110.544 73.069 110.448C73.0477 110.352 73.037 110.224 73.037 110.064V104.928H74.685V103.728H73.037ZM81.9399 107.072H77.1879C77.2092 106.752 77.2785 106.453 77.3959 106.176C77.5132 105.888 77.6732 105.637 77.8759 105.424C78.0785 105.211 78.3185 105.045 78.5959 104.928C78.8839 104.8 79.2039 104.736 79.5559 104.736C79.8972 104.736 80.2065 104.8 80.4839 104.928C80.7719 105.045 81.0172 105.211 81.2199 105.424C81.4332 105.627 81.5985 105.872 81.7159 106.16C81.8439 106.448 81.9185 106.752 81.9399 107.072ZM83.2519 109.376H81.9079C81.7905 109.92 81.5452 110.325 81.1719 110.592C80.8092 110.859 80.3399 110.992 79.7639 110.992C79.3159 110.992 78.9265 110.917 78.5959 110.768C78.2652 110.619 77.9932 110.421 77.7799 110.176C77.5665 109.92 77.4119 109.632 77.3159 109.312C77.2199 108.981 77.1772 108.635 77.1879 108.272H83.3799C83.4012 107.771 83.3532 107.243 83.2359 106.688C83.1292 106.133 82.9265 105.621 82.6279 105.152C82.3399 104.683 81.9505 104.299 81.4599 104C80.9799 103.691 80.3719 103.536 79.6359 103.536C79.0705 103.536 78.5479 103.643 78.0679 103.856C77.5985 104.069 77.1879 104.368 76.8359 104.752C76.4945 105.136 76.2279 105.589 76.0359 106.112C75.8439 106.635 75.7479 107.211 75.7479 107.84C75.7692 108.469 75.8599 109.051 76.0199 109.584C76.1905 110.117 76.4412 110.576 76.7719 110.96C77.1025 111.344 77.5079 111.643 77.9879 111.856C78.4785 112.069 79.0545 112.176 79.7159 112.176C80.6545 112.176 81.4332 111.941 82.0519 111.472C82.6705 111.003 83.0705 110.304 83.2519 109.376ZM92.1176 111.968C91.883 112.107 91.5576 112.176 91.1416 112.176C90.7896 112.176 90.507 112.08 90.2936 111.888C90.091 111.685 89.9896 111.36 89.9896 110.912C89.6163 111.36 89.179 111.685 88.6776 111.888C88.187 112.08 87.6536 112.176 87.0776 112.176C86.7043 112.176 86.347 112.133 86.0056 112.048C85.675 111.963 85.387 111.829 85.1416 111.648C84.8963 111.467 84.699 111.232 84.5496 110.944C84.411 110.645 84.3416 110.288 84.3416 109.872C84.3416 109.403 84.4216 109.019 84.5816 108.72C84.7416 108.421 84.9496 108.181 85.2056 108C85.4723 107.808 85.771 107.664 86.1016 107.568C86.443 107.472 86.7896 107.392 87.1416 107.328C87.515 107.253 87.867 107.2 88.1976 107.168C88.539 107.125 88.8376 107.072 89.0936 107.008C89.3496 106.933 89.5523 106.832 89.7016 106.704C89.851 106.565 89.9256 106.368 89.9256 106.112C89.9256 105.813 89.867 105.573 89.7496 105.392C89.643 105.211 89.499 105.072 89.3176 104.976C89.147 104.88 88.9496 104.816 88.7256 104.784C88.5123 104.752 88.299 104.736 88.0856 104.736C87.5096 104.736 87.0296 104.848 86.6456 105.072C86.2616 105.285 86.0536 105.696 86.0216 106.304H84.6616C84.683 105.792 84.7896 105.36 84.9816 105.008C85.1736 104.656 85.4296 104.373 85.7496 104.16C86.0696 103.936 86.4323 103.776 86.8376 103.68C87.2536 103.584 87.6963 103.536 88.1656 103.536C88.539 103.536 88.907 103.563 89.2696 103.616C89.643 103.669 89.979 103.781 90.2776 103.952C90.5763 104.112 90.8163 104.341 90.9976 104.64C91.179 104.939 91.2696 105.328 91.2696 105.808V110.064C91.2696 110.384 91.2856 110.619 91.3176 110.768C91.3603 110.917 91.4883 110.992 91.7016 110.992C91.819 110.992 91.9576 110.965 92.1176 110.912V111.968ZM89.9096 107.728C89.739 107.856 89.515 107.952 89.2376 108.016C88.9603 108.069 88.667 108.117 88.3576 108.16C88.059 108.192 87.755 108.235 87.4456 108.288C87.1363 108.331 86.859 108.405 86.6136 108.512C86.3683 108.619 86.1656 108.773 86.0056 108.976C85.8563 109.168 85.7816 109.435 85.7816 109.776C85.7816 110 85.8243 110.192 85.9096 110.352C86.0056 110.501 86.123 110.624 86.2616 110.72C86.411 110.816 86.5816 110.885 86.7736 110.928C86.9656 110.971 87.1683 110.992 87.3816 110.992C87.8296 110.992 88.2136 110.933 88.5336 110.816C88.8536 110.688 89.115 110.533 89.3176 110.352C89.5203 110.16 89.6696 109.957 89.7656 109.744C89.8616 109.52 89.9096 109.312 89.9096 109.12V107.728ZM93.3834 103.728V112H94.7434V106.848C94.7434 106.688 94.7807 106.491 94.8554 106.256C94.9407 106.011 95.0687 105.776 95.2394 105.552C95.4207 105.328 95.65 105.136 95.9274 104.976C96.2154 104.816 96.5567 104.736 96.9514 104.736C97.2607 104.736 97.5114 104.784 97.7034 104.88C97.906 104.965 98.066 105.093 98.1834 105.264C98.3007 105.424 98.3807 105.616 98.4234 105.84C98.4767 106.064 98.5034 106.309 98.5034 106.576V112H99.8634V106.848C99.8634 106.208 100.055 105.696 100.439 105.312C100.823 104.928 101.351 104.736 102.023 104.736C102.354 104.736 102.621 104.784 102.823 104.88C103.037 104.976 103.202 105.109 103.319 105.28C103.437 105.44 103.517 105.632 103.559 105.856C103.602 106.08 103.623 106.32 103.623 106.576V112H104.983V105.936C104.983 105.509 104.914 105.147 104.775 104.848C104.647 104.539 104.461 104.288 104.215 104.096C103.981 103.904 103.693 103.765 103.351 103.68C103.021 103.584 102.647 103.536 102.231 103.536C101.687 103.536 101.186 103.659 100.727 103.904C100.279 104.149 99.9167 104.496 99.6394 104.944C99.4687 104.432 99.1754 104.069 98.7594 103.856C98.3434 103.643 97.8794 103.536 97.3674 103.536C96.2047 103.536 95.314 104.005 94.6954 104.944H94.6634V103.728H93.3834Z" fill="black"/>
</g>
</g>
<g id="menu_4">
<g id="menu item_4">
<g id="icon_3">
<g id="share">
<path id="Vector_3" d="M8.68408 151.342C8.88608 150.938 9.00008 150.482 9.00008 150C9.00008 149.518 8.88608 149.062 8.68408 148.658M8.68408 151.342C8.38178 151.946 7.88428 152.431 7.27217 152.717C6.66007 153.004 5.96921 153.075 5.31152 152.92C4.65384 152.764 4.06785 152.392 3.64849 151.862C3.22914 151.332 3.00098 150.676 3.00098 150C3.00098 149.324 3.22914 148.668 3.64849 148.138C4.06785 147.608 4.65384 147.236 5.31152 147.08C5.96921 146.925 6.66007 146.996 7.27217 147.283C7.88428 147.569 8.38178 148.054 8.68408 148.658M8.68408 151.342L15.3161 154.658M8.68408 148.658L15.3161 145.342M15.3161 154.658C14.9602 155.37 14.9016 156.194 15.1533 156.949C15.4049 157.704 15.9462 158.328 16.6581 158.684C17.3699 159.04 18.194 159.098 18.949 158.847C19.704 158.595 20.3282 158.054 20.6841 157.342C21.04 156.63 21.0986 155.806 20.8469 155.051C20.5952 154.296 20.0539 153.672 19.3421 153.316C18.9896 153.14 18.6059 153.035 18.2128 153.007C17.8197 152.979 17.425 153.029 17.0511 153.153C16.2961 153.405 15.672 153.946 15.3161 154.658ZM15.3161 145.342C15.4923 145.694 15.7362 146.009 16.0339 146.267C16.3316 146.525 16.6772 146.722 17.051 146.846C17.4248 146.971 17.8195 147.021 18.2125 146.993C18.6055 146.965 18.9892 146.86 19.3416 146.683C19.694 146.507 20.0082 146.263 20.2664 145.966C20.5245 145.668 20.7215 145.322 20.846 144.949C20.9706 144.575 21.0203 144.18 20.9924 143.787C20.9644 143.394 20.8593 143.01 20.6831 142.658C20.3272 141.946 19.7031 141.405 18.9482 141.154C18.1932 140.902 17.3693 140.961 16.6576 141.316C15.9459 141.672 15.4047 142.296 15.1531 143.051C14.9015 143.806 14.9602 144.63 15.3161 145.342Z" stroke="#00D1CD" stroke-width="2" stroke-linecap="round" stroke-linejoin="round"/>
</g>
</g>
<path id="Share the idea" d="M46.856 147.92H48.296C48.2747 147.291 48.152 146.752 47.928 146.304C47.7147 145.845 47.416 145.467 47.032 145.168C46.6587 144.869 46.2213 144.651 45.72 144.512C45.2187 144.373 44.6747 144.304 44.088 144.304C43.5653 144.304 43.0533 144.373 42.552 144.512C42.0613 144.64 41.6187 144.843 41.224 145.12C40.84 145.387 40.5307 145.733 40.296 146.16C40.0613 146.576 39.944 147.072 39.944 147.648C39.944 148.171 40.0453 148.608 40.248 148.96C40.4613 149.301 40.7387 149.584 41.08 149.808C41.432 150.021 41.8267 150.197 42.264 150.336C42.7013 150.464 43.144 150.581 43.592 150.688C44.0507 150.784 44.4987 150.88 44.936 150.976C45.3733 151.072 45.7627 151.2 46.104 151.36C46.456 151.509 46.7333 151.707 46.936 151.952C47.1493 152.197 47.256 152.517 47.256 152.912C47.256 153.328 47.1707 153.669 47 153.936C46.8293 154.203 46.6053 154.416 46.328 154.576C46.0507 154.725 45.736 154.832 45.384 154.896C45.0427 154.96 44.7013 154.992 44.36 154.992C43.9333 154.992 43.5173 154.939 43.112 154.832C42.7067 154.725 42.3493 154.56 42.04 154.336C41.7413 154.112 41.496 153.829 41.304 153.488C41.1227 153.136 41.032 152.72 41.032 152.24H39.592C39.592 152.933 39.7147 153.536 39.96 154.048C40.216 154.549 40.5573 154.965 40.984 155.296C41.4213 155.616 41.9227 155.856 42.488 156.016C43.064 156.176 43.672 156.256 44.312 156.256C44.8347 156.256 45.3573 156.192 45.88 156.064C46.4133 155.947 46.8933 155.755 47.32 155.488C47.7467 155.211 48.0933 154.859 48.36 154.432C48.6373 153.995 48.776 153.472 48.776 152.864C48.776 152.299 48.6693 151.829 48.456 151.456C48.2533 151.083 47.976 150.773 47.624 150.528C47.2827 150.283 46.8933 150.091 46.456 149.952C46.0187 149.803 45.5707 149.675 45.112 149.568C44.664 149.461 44.2213 149.365 43.784 149.28C43.3467 149.184 42.952 149.067 42.6 148.928C42.2587 148.789 41.9813 148.613 41.768 148.4C41.5653 148.176 41.464 147.888 41.464 147.536C41.464 147.163 41.5333 146.853 41.672 146.608C41.8213 146.352 42.0133 146.149 42.248 146C42.4933 145.851 42.7707 145.744 43.08 145.68C43.3893 145.616 43.704 145.584 44.024 145.584C44.8133 145.584 45.4587 145.771 45.96 146.144C46.472 146.507 46.7707 147.099 46.856 147.92ZM50.399 144.576V156H51.759V151.328C51.759 150.955 51.807 150.613 51.903 150.304C52.0097 149.984 52.1643 149.707 52.367 149.472C52.5697 149.237 52.8203 149.056 53.119 148.928C53.4283 148.8 53.791 148.736 54.207 148.736C54.7297 148.736 55.1403 148.885 55.439 149.184C55.7377 149.483 55.887 149.888 55.887 150.4V156H57.247V150.56C57.247 150.112 57.199 149.707 57.103 149.344C57.0177 148.971 56.863 148.651 56.639 148.384C56.415 148.117 56.1217 147.909 55.759 147.76C55.3963 147.611 54.943 147.536 54.399 147.536C54.1537 147.536 53.8977 147.563 53.631 147.616C53.375 147.669 53.1243 147.755 52.879 147.872C52.6443 147.979 52.431 148.123 52.239 148.304C52.047 148.475 51.8977 148.688 51.791 148.944H51.759V144.576H50.399ZM66.6176 155.968C66.383 156.107 66.0576 156.176 65.6416 156.176C65.2896 156.176 65.007 156.08 64.7936 155.888C64.591 155.685 64.4896 155.36 64.4896 154.912C64.1163 155.36 63.679 155.685 63.1776 155.888C62.687 156.08 62.1536 156.176 61.5776 156.176C61.2043 156.176 60.847 156.133 60.5056 156.048C60.175 155.963 59.887 155.829 59.6416 155.648C59.3963 155.467 59.199 155.232 59.0496 154.944C58.911 154.645 58.8416 154.288 58.8416 153.872C58.8416 153.403 58.9216 153.019 59.0816 152.72C59.2416 152.421 59.4496 152.181 59.7056 152C59.9723 151.808 60.271 151.664 60.6016 151.568C60.943 151.472 61.2896 151.392 61.6416 151.328C62.015 151.253 62.367 151.2 62.6976 151.168C63.039 151.125 63.3376 151.072 63.5936 151.008C63.8496 150.933 64.0523 150.832 64.2016 150.704C64.351 150.565 64.4256 150.368 64.4256 150.112C64.4256 149.813 64.367 149.573 64.2496 149.392C64.143 149.211 63.999 149.072 63.8176 148.976C63.647 148.88 63.4496 148.816 63.2256 148.784C63.0123 148.752 62.799 148.736 62.5856 148.736C62.0096 148.736 61.5296 148.848 61.1456 149.072C60.7616 149.285 60.5536 149.696 60.5216 150.304H59.1616C59.183 149.792 59.2896 149.36 59.4816 149.008C59.6736 148.656 59.9296 148.373 60.2496 148.16C60.5696 147.936 60.9323 147.776 61.3376 147.68C61.7536 147.584 62.1963 147.536 62.6656 147.536C63.039 147.536 63.407 147.563 63.7696 147.616C64.143 147.669 64.479 147.781 64.7776 147.952C65.0763 148.112 65.3163 148.341 65.4976 148.64C65.679 148.939 65.7696 149.328 65.7696 149.808V154.064C65.7696 154.384 65.7856 154.619 65.8176 154.768C65.8603 154.917 65.9883 154.992 66.2016 154.992C66.319 154.992 66.4576 154.965 66.6176 154.912V155.968ZM64.4096 151.728C64.239 151.856 64.015 151.952 63.7376 152.016C63.4603 152.069 63.167 152.117 62.8576 152.16C62.559 152.192 62.255 152.235 61.9456 152.288C61.6363 152.331 61.359 152.405 61.1136 152.512C60.8683 152.619 60.6656 152.773 60.5056 152.976C60.3563 153.168 60.2816 153.435 60.2816 153.776C60.2816 154 60.3243 154.192 60.4096 154.352C60.5056 154.501 60.623 154.624 60.7616 154.72C60.911 154.816 61.0816 154.885 61.2736 154.928C61.4656 154.971 61.6683 154.992 61.8816 154.992C62.3296 154.992 62.7136 154.933 63.0336 154.816C63.3536 154.688 63.615 154.533 63.8176 154.352C64.0203 154.16 64.1696 153.957 64.2656 153.744C64.3616 153.52 64.4096 153.312 64.4096 153.12V151.728ZM67.8354 147.728V156H69.1954V152.32C69.1954 151.787 69.2487 151.317 69.3554 150.912C69.462 150.496 69.6327 150.144 69.8674 149.856C70.102 149.568 70.4114 149.349 70.7954 149.2C71.1794 149.051 71.6434 148.976 72.1874 148.976V147.536C71.4514 147.515 70.8434 147.664 70.3634 147.984C69.8834 148.304 69.478 148.8 69.1474 149.472H69.1154V147.728H67.8354ZM78.6743 151.072H73.9223C73.9436 150.752 74.0129 150.453 74.1303 150.176C74.2476 149.888 74.4076 149.637 74.6103 149.424C74.8129 149.211 75.0529 149.045 75.3303 148.928C75.6183 148.8 75.9383 148.736 76.2903 148.736C76.6316 148.736 76.9409 148.8 77.2183 148.928C77.5063 149.045 77.7516 149.211 77.9543 149.424C78.1676 149.627 78.3329 149.872 78.4503 150.16C78.5783 150.448 78.6529 150.752 78.6743 151.072ZM79.9862 153.376H78.6423C78.5249 153.92 78.2796 154.325 77.9063 154.592C77.5436 154.859 77.0743 154.992 76.4983 154.992C76.0503 154.992 75.6609 154.917 75.3303 154.768C74.9996 154.619 74.7276 154.421 74.5143 154.176C74.3009 153.92 74.1463 153.632 74.0503 153.312C73.9543 152.981 73.9116 152.635 73.9223 152.272H80.1143C80.1356 151.771 80.0876 151.243 79.9703 150.688C79.8636 150.133 79.6609 149.621 79.3623 149.152C79.0743 148.683 78.6849 148.299 78.1943 148C77.7143 147.691 77.1063 147.536 76.3703 147.536C75.8049 147.536 75.2823 147.643 74.8023 147.856C74.3329 148.069 73.9223 148.368 73.5703 148.752C73.2289 149.136 72.9623 149.589 72.7703 150.112C72.5783 150.635 72.4823 151.211 72.4823 151.84C72.5036 152.469 72.5943 153.051 72.7543 153.584C72.9249 154.117 73.1756 154.576 73.5063 154.96C73.8369 155.344 74.2423 155.643 74.7223 155.856C75.2129 156.069 75.7889 156.176 76.4503 156.176C77.3889 156.176 78.1676 155.941 78.7863 155.472C79.4049 155.003 79.8049 154.304 79.9862 153.376ZM87.8651 147.728V145.248H86.5051V147.728H85.0971V148.928H86.5051V154.192C86.5051 154.576 86.5425 154.885 86.6171 155.12C86.6918 155.355 86.8038 155.536 86.9531 155.664C87.1131 155.792 87.3158 155.883 87.5611 155.936C87.8171 155.979 88.1211 156 88.4731 156H89.5131V154.8H88.8891C88.6758 154.8 88.4998 154.795 88.3611 154.784C88.2331 154.763 88.1318 154.725 88.0571 154.672C87.9825 154.619 87.9291 154.544 87.8971 154.448C87.8758 154.352 87.8651 154.224 87.8651 154.064V148.928H89.5131V147.728H87.8651ZM91.024 144.576V156H92.384V151.328C92.384 150.955 92.432 150.613 92.528 150.304C92.6347 149.984 92.7893 149.707 92.992 149.472C93.1947 149.237 93.4453 149.056 93.744 148.928C94.0533 148.8 94.416 148.736 94.832 148.736C95.3547 148.736 95.7653 148.885 96.064 149.184C96.3627 149.483 96.512 149.888 96.512 150.4V156H97.872V150.56C97.872 150.112 97.824 149.707 97.728 149.344C97.6427 148.971 97.488 148.651 97.264 148.384C97.04 148.117 96.7467 147.909 96.384 147.76C96.0213 147.611 95.568 147.536 95.024 147.536C94.7787 147.536 94.5227 147.563 94.256 147.616C94 147.669 93.7493 147.755 93.504 147.872C93.2693 147.979 93.056 148.123 92.864 148.304C92.672 148.475 92.5227 148.688 92.416 148.944H92.384V144.576H91.024ZM105.659 151.072H100.907C100.928 150.752 100.997 150.453 101.115 150.176C101.232 149.888 101.392 149.637 101.595 149.424C101.797 149.211 102.037 149.045 102.315 148.928C102.603 148.8 102.923 148.736 103.275 148.736C103.616 148.736 103.925 148.8 104.203 148.928C104.491 149.045 104.736 149.211 104.939 149.424C105.152 149.627 105.317 149.872 105.435 150.16C105.563 150.448 105.637 150.752 105.659 151.072ZM106.971 153.376H105.627C105.509 153.92 105.264 154.325 104.891 154.592C104.528 154.859 104.059 154.992 103.483 154.992C103.035 154.992 102.645 154.917 102.315 154.768C101.984 154.619 101.712 154.421 101.499 154.176C101.285 153.92 101.131 153.632 101.035 153.312C100.939 152.981 100.896 152.635 100.907 152.272H107.099C107.12 151.771 107.072 151.243 106.955 150.688C106.848 150.133 106.645 149.621 106.347 149.152C106.059 148.683 105.669 148.299 105.179 148C104.699 147.691 104.091 147.536 103.355 147.536C102.789 147.536 102.267 147.643 101.787 147.856C101.317 148.069 100.907 148.368 100.555 148.752C100.213 149.136 99.9466 149.589 99.7546 150.112C99.5626 150.635 99.4666 151.211 99.4666 151.84C99.488 152.469 99.5786 153.051 99.7386 153.584C99.9093 154.117 100.16 154.576 100.491 154.96C100.821 155.344 101.227 155.643 101.707 155.856C102.197 156.069 102.773 156.176 103.435 156.176C104.373 156.176 105.152 155.941 105.771 155.472C106.389 155.003 106.789 154.304 106.971 153.376ZM114.402 146.24V144.576H113.042V146.24H114.402ZM113.042 147.728V156H114.402V147.728H113.042ZM117.5 151.936C117.5 151.531 117.543 151.136 117.628 150.752C117.714 150.368 117.852 150.027 118.044 149.728C118.236 149.429 118.492 149.189 118.812 149.008C119.132 148.827 119.522 148.736 119.98 148.736C120.45 148.736 120.85 148.827 121.18 149.008C121.511 149.179 121.778 149.408 121.98 149.696C122.194 149.984 122.348 150.32 122.444 150.704C122.54 151.077 122.588 151.467 122.588 151.872C122.588 152.256 122.54 152.635 122.444 153.008C122.359 153.381 122.215 153.717 122.012 154.016C121.81 154.304 121.548 154.539 121.228 154.72C120.908 154.901 120.519 154.992 120.06 154.992C119.623 154.992 119.239 154.907 118.908 154.736C118.588 154.565 118.322 154.336 118.108 154.048C117.906 153.76 117.751 153.435 117.644 153.072C117.548 152.699 117.5 152.32 117.5 151.936ZM123.9 156V144.576H122.54V148.832H122.508C122.359 148.587 122.172 148.384 121.948 148.224C121.735 148.053 121.506 147.92 121.26 147.824C121.015 147.717 120.77 147.643 120.524 147.6C120.279 147.557 120.05 147.536 119.836 147.536C119.207 147.536 118.652 147.653 118.172 147.888C117.703 148.112 117.308 148.421 116.988 148.816C116.679 149.2 116.444 149.653 116.284 150.176C116.135 150.699 116.06 151.253 116.06 151.84C116.06 152.427 116.14 152.981 116.3 153.504C116.46 154.027 116.695 154.485 117.004 154.88C117.324 155.275 117.719 155.589 118.188 155.824C118.668 156.059 119.228 156.176 119.868 156.176C120.444 156.176 120.972 156.075 121.452 155.872C121.932 155.669 122.284 155.339 122.508 154.88H122.54V156H123.9ZM131.737 151.072H126.985C127.006 150.752 127.075 150.453 127.193 150.176C127.31 149.888 127.47 149.637 127.673 149.424C127.875 149.211 128.115 149.045 128.393 148.928C128.681 148.8 129.001 148.736 129.353 148.736C129.694 148.736 130.003 148.8 130.281 148.928C130.569 149.045 130.814 149.211 131.017 149.424C131.23 149.627 131.395 149.872 131.513 150.16C131.641 150.448 131.715 150.752 131.737 151.072ZM133.049 153.376H131.705C131.587 153.92 131.342 154.325 130.969 154.592C130.606 154.859 130.137 154.992 129.561 154.992C129.113 154.992 128.723 154.917 128.393 154.768C128.062 154.619 127.79 154.421 127.577 154.176C127.363 153.92 127.209 153.632 127.113 153.312C127.017 152.981 126.974 152.635 126.985 152.272H133.177C133.198 151.771 133.15 151.243 133.033 150.688C132.926 150.133 132.723 149.621 132.425 149.152C132.137 148.683 131.747 148.299 131.257 148C130.777 147.691 130.169 147.536 129.433 147.536C128.867 147.536 128.345 147.643 127.865 147.856C127.395 148.069 126.985 148.368 126.633 148.752C126.291 149.136 126.025 149.589 125.833 150.112C125.641 150.635 125.545 151.211 125.545 151.84C125.566 152.469 125.657 153.051 125.817 153.584C125.987 154.117 126.238 154.576 126.569 154.96C126.899 155.344 127.305 155.643 127.785 155.856C128.275 156.069 128.851 156.176 129.513 156.176C130.451 156.176 131.23 155.941 131.849 155.472C132.467 155.003 132.867 154.304 133.049 153.376ZM141.915 155.968C141.68 156.107 141.355 156.176 140.939 156.176C140.587 156.176 140.304 156.08 140.091 155.888C139.888 155.685 139.787 155.36 139.787 154.912C139.413 155.36 138.976 155.685 138.475 155.888C137.984 156.08 137.451 156.176 136.875 156.176C136.501 156.176 136.144 156.133 135.803 156.048C135.472 155.963 135.184 155.829 134.939 155.648C134.693 155.467 134.496 155.232 134.347 154.944C134.208 154.645 134.139 154.288 134.139 153.872C134.139 153.403 134.219 153.019 134.379 152.72C134.539 152.421 134.747 152.181 135.003 152C135.269 151.808 135.568 151.664 135.899 151.568C136.24 151.472 136.587 151.392 136.939 151.328C137.312 151.253 137.664 151.2 137.995 151.168C138.336 151.125 138.635 151.072 138.891 151.008C139.147 150.933 139.349 150.832 139.499 150.704C139.648 150.565 139.723 150.368 139.723 150.112C139.723 149.813 139.664 149.573 139.547 149.392C139.44 149.211 139.296 149.072 139.115 148.976C138.944 148.88 138.747 148.816 138.523 148.784C138.309 148.752 138.096 148.736 137.883 148.736C137.307 148.736 136.827 148.848 136.443 149.072C136.059 149.285 135.851 149.696 135.819 150.304H134.459C134.48 149.792 134.587 149.36 134.779 149.008C134.971 148.656 135.227 148.373 135.547 148.16C135.867 147.936 136.229 147.776 136.635 147.68C137.051 147.584 137.493 147.536 137.963 147.536C138.336 147.536 138.704 147.563 139.067 147.616C139.44 147.669 139.776 147.781 140.075 147.952C140.373 148.112 140.613 148.341 140.795 148.64C140.976 148.939 141.067 149.328 141.067 149.808V154.064C141.067 154.384 141.083 154.619 141.115 154.768C141.157 154.917 141.285 154.992 141.499 154.992C141.616 154.992 141.755 154.965 141.915 154.912V155.968ZM139.707 151.728C139.536 151.856 139.312 151.952 139.035 152.016C138.757 152.069 138.464 152.117 138.155 152.16C137.856 152.192 137.552 152.235 137.243 152.288C136.933 152.331 136.656 152.405 136.411 152.512C136.165 152.619 135.963 152.773 135.803 152.976C135.653 153.168 135.579 153.435 135.579 153.776C135.579 154 135.621 154.192 135.707 154.352C135.803 154.501 135.92 154.624 136.059 154.72C136.208 154.816 136.379 154.885 136.571 154.928C136.763 154.971 136.965 154.992 137.179 154.992C137.627 154.992 138.011 154.933 138.331 154.816C138.651 154.688 138.912 154.533 139.115 154.352C139.317 154.16 139.467 153.957 139.563 153.744C139.659 153.52 139.707 153.312 139.707 153.12V151.728Z" fill="black"/>
</g>
</g>
<g id="menu_5" opacity="0.5">
<g id="menu item_5">
<g id="icon_4">
<g id="office-building">
<path id="Vector_4" d="M19 203V187C19 186.47 18.7893 185.961 18.4142 185.586C18.0391 185.211 17.5304 185 17 185H7C6.46957 185 5.96086 185.211 5.58579 185.586C5.21071 185.961 5 186.47 5 187V203M19 203H5M19 203H21M19 203H14M5 203H3M5 203H10M14 203V198C14 197.735 13.8946 197.48 13.7071 197.293C13.5196 197.105 13.2652 197 13 197H11C10.7348 197 10.4804 197.105 10.2929 197.293C10.1054 197.48 10 197.735 10 198V203M14 203H10M9 189H10M9 193H10M14 189H15M14 193H15" stroke="black" stroke-width="2" stroke-linecap="round" stroke-linejoin="round"/>
</g>
</g>
<path id="Imprint" d="M40.312 188.576V200H41.832V188.576H40.312ZM44.1646 191.728V200H45.5246V194.848C45.5246 194.688 45.562 194.491 45.6366 194.256C45.722 194.011 45.85 193.776 46.0206 193.552C46.202 193.328 46.4313 193.136 46.7086 192.976C46.9966 192.816 47.338 192.736 47.7326 192.736C48.042 192.736 48.2926 192.784 48.4846 192.88C48.6873 192.965 48.8473 193.093 48.9646 193.264C49.082 193.424 49.162 193.616 49.2046 193.84C49.258 194.064 49.2846 194.309 49.2846 194.576V200H50.6446V194.848C50.6446 194.208 50.8366 193.696 51.2206 193.312C51.6046 192.928 52.1326 192.736 52.8046 192.736C53.1353 192.736 53.402 192.784 53.6046 192.88C53.818 192.976 53.9833 193.109 54.1006 193.28C54.218 193.44 54.298 193.632 54.3406 193.856C54.3833 194.08 54.4046 194.32 54.4046 194.576V200H55.7646V193.936C55.7646 193.509 55.6953 193.147 55.5566 192.848C55.4286 192.539 55.242 192.288 54.9966 192.096C54.762 191.904 54.474 191.765 54.1326 191.68C53.802 191.584 53.4286 191.536 53.0126 191.536C52.4686 191.536 51.9673 191.659 51.5086 191.904C51.0606 192.149 50.698 192.496 50.4206 192.944C50.25 192.432 49.9566 192.069 49.5406 191.856C49.1246 191.643 48.6606 191.536 48.1486 191.536C46.986 191.536 46.0953 192.005 45.4766 192.944H45.4446V191.728H44.1646ZM57.8533 191.728V203.152H59.2133V198.896H59.2453C59.3946 199.141 59.5759 199.349 59.7893 199.52C60.0133 199.68 60.2479 199.808 60.4933 199.904C60.7386 200 60.9839 200.069 61.2293 200.112C61.4853 200.155 61.7146 200.176 61.9173 200.176C62.5466 200.176 63.0959 200.064 63.5653 199.84C64.0453 199.616 64.4399 199.312 64.7493 198.928C65.0693 198.533 65.3039 198.075 65.4533 197.552C65.6133 197.029 65.6933 196.475 65.6933 195.888C65.6933 195.301 65.6133 194.747 65.4533 194.224C65.2933 193.701 65.0533 193.243 64.7333 192.848C64.4239 192.443 64.0293 192.123 63.5493 191.888C63.0799 191.653 62.5253 191.536 61.8853 191.536C61.3093 191.536 60.7813 191.643 60.3013 191.856C59.8213 192.059 59.4693 192.389 59.2453 192.848H59.2133V191.728H57.8533ZM64.2533 195.792C64.2533 196.197 64.2106 196.592 64.1253 196.976C64.0399 197.36 63.9013 197.701 63.7093 198C63.5173 198.299 63.2613 198.539 62.9413 198.72C62.6319 198.901 62.2426 198.992 61.7733 198.992C61.3039 198.992 60.9039 198.907 60.5733 198.736C60.2426 198.555 59.9706 198.32 59.7573 198.032C59.5546 197.744 59.4053 197.413 59.3093 197.04C59.2133 196.656 59.1653 196.261 59.1653 195.856C59.1653 195.472 59.2079 195.093 59.2933 194.72C59.3893 194.347 59.5386 194.016 59.7413 193.728C59.9439 193.429 60.2053 193.189 60.5253 193.008C60.8453 192.827 61.2346 192.736 61.6933 192.736C62.1306 192.736 62.5093 192.821 62.8293 192.992C63.1599 193.163 63.4266 193.392 63.6293 193.68C63.8426 193.968 63.9973 194.299 64.0933 194.672C64.1999 195.035 64.2533 195.408 64.2533 195.792ZM67.2416 191.728V200H68.6016V196.32C68.6016 195.787 68.655 195.317 68.7616 194.912C68.8683 194.496 69.039 194.144 69.2736 193.856C69.5083 193.568 69.8176 193.349 70.2016 193.2C70.5856 193.051 71.0496 192.976 71.5936 192.976V191.536C70.8576 191.515 70.2496 191.664 69.7696 191.984C69.2896 192.304 68.8843 192.8 68.5536 193.472H68.5216V191.728H67.2416ZM74.0578 190.24V188.576H72.6978V190.24H74.0578ZM72.6978 191.728V200H74.0578V191.728H72.6978ZM76.1646 191.728V200H77.5246V195.328C77.5246 194.955 77.5726 194.613 77.6686 194.304C77.7753 193.984 77.93 193.707 78.1326 193.472C78.3353 193.237 78.586 193.056 78.8846 192.928C79.194 192.8 79.5566 192.736 79.9726 192.736C80.4953 192.736 80.906 192.885 81.2046 193.184C81.5033 193.483 81.6526 193.888 81.6526 194.4V200H83.0126V194.56C83.0126 194.112 82.9646 193.707 82.8686 193.344C82.7833 192.971 82.6286 192.651 82.4046 192.384C82.1806 192.117 81.8873 191.909 81.5246 191.76C81.162 191.611 80.7086 191.536 80.1646 191.536C78.938 191.536 78.042 192.037 77.4766 193.04H77.4446V191.728H76.1646ZM86.9433 191.728V189.248H85.5833V191.728H84.1753V192.928H85.5833V198.192C85.5833 198.576 85.6206 198.885 85.6953 199.12C85.7699 199.355 85.8819 199.536 86.0312 199.664C86.1913 199.792 86.3939 199.883 86.6393 199.936C86.8953 199.979 87.1993 200 87.5513 200H88.5913V198.8H87.9673C87.7539 198.8 87.5779 198.795 87.4393 198.784C87.3113 198.763 87.2099 198.725 87.1353 198.672C87.0606 198.619 87.0073 198.544 86.9753 198.448C86.9539 198.352 86.9433 198.224 86.9433 198.064V192.928H88.5913V191.728H86.9433Z" fill="black"/>
</g>
</g>
</g>
</svg>
