<svg width="300" height="110" viewBox="0 0 300 110" fill="none" xmlns="http://www.w3.org/2000/svg">
<g id="newsletter">
<g id="Text/Field">
<g id="Text/Primitive">
<path d="M0 4C0 1.79086 1.79086 0 4 0H296C298.209 0 300 1.79086 300 4V39C300 41.2091 298.209 43 296 43H4C1.79086 43 0 41.2091 0 39V4Z" fill="white"/>
<g id="Input">
<g id="E-Mail &#240;&#159;&#146;&#140;">
<path d="M118.209 16.576V28H126.145V26.72H119.729V22.768H125.665V21.488H119.729V17.856H126.097V16.576H118.209ZM127.542 22.912V24.192H132.166V22.912H127.542ZM134.241 16.576V28H135.681V18.496H135.713L139.281 28H140.577L144.145 18.496H144.177V28H145.617V16.576H143.537L139.921 26.176L136.321 16.576H134.241ZM155.25 27.968C155.016 28.1067 154.69 28.176 154.274 28.176C153.922 28.176 153.64 28.08 153.426 27.888C153.224 27.6853 153.122 27.36 153.122 26.912C152.749 27.36 152.312 27.6853 151.81 27.888C151.32 28.08 150.786 28.176 150.21 28.176C149.837 28.176 149.48 28.1333 149.138 28.048C148.808 27.9627 148.52 27.8293 148.274 27.648C148.029 27.4667 147.832 27.232 147.682 26.944C147.544 26.6453 147.474 26.288 147.474 25.872C147.474 25.4027 147.554 25.0187 147.714 24.72C147.874 24.4213 148.082 24.1813 148.338 24C148.605 23.808 148.904 23.664 149.234 23.568C149.576 23.472 149.922 23.392 150.274 23.328C150.648 23.2533 151 23.2 151.33 23.168C151.672 23.1253 151.97 23.072 152.226 23.008C152.482 22.9333 152.685 22.832 152.834 22.704C152.984 22.5653 153.058 22.368 153.058 22.112C153.058 21.8133 153 21.5733 152.882 21.392C152.776 21.2107 152.632 21.072 152.45 20.976C152.28 20.88 152.082 20.816 151.858 20.784C151.645 20.752 151.432 20.736 151.218 20.736C150.642 20.736 150.162 20.848 149.778 21.072C149.394 21.2853 149.186 21.696 149.154 22.304H147.794C147.816 21.792 147.922 21.36 148.114 21.008C148.306 20.656 148.562 20.3733 148.882 20.16C149.202 19.936 149.565 19.776 149.97 19.68C150.386 19.584 150.829 19.536 151.298 19.536C151.672 19.536 152.04 19.5627 152.402 19.616C152.776 19.6693 153.112 19.7813 153.41 19.952C153.709 20.112 153.949 20.3413 154.13 20.64C154.312 20.9387 154.402 21.328 154.402 21.808V26.064C154.402 26.384 154.418 26.6187 154.45 26.768C154.493 26.9173 154.621 26.992 154.834 26.992C154.952 26.992 155.09 26.9653 155.25 26.912V27.968ZM153.042 23.728C152.872 23.856 152.648 23.952 152.37 24.016C152.093 24.0693 151.8 24.1173 151.49 24.16C151.192 24.192 150.888 24.2347 150.578 24.288C150.269 24.3307 149.992 24.4053 149.746 24.512C149.501 24.6187 149.298 24.7733 149.138 24.976C148.989 25.168 148.914 25.4347 148.914 25.776C148.914 26 148.957 26.192 149.042 26.352C149.138 26.5013 149.256 26.624 149.394 26.72C149.544 26.816 149.714 26.8853 149.906 26.928C150.098 26.9707 150.301 26.992 150.514 26.992C150.962 26.992 151.346 26.9333 151.666 26.816C151.986 26.688 152.248 26.5333 152.45 26.352C152.653 26.16 152.802 25.9573 152.898 25.744C152.994 25.52 153.042 25.312 153.042 25.12V23.728ZM157.956 18.24V16.576H156.596V18.24H157.956ZM156.596 19.728V28H157.956V19.728H156.596ZM160.143 16.576V28H161.503V16.576H160.143Z" fill="#A0AEC0"/>
<path d="M167.039 29.12H183.039V13.12H167.039V29.12Z"/>
</g>
</g>
<path d="M4 1H296V-1H4V1ZM299 4V39H301V4H299ZM296 42H4V44H296V42ZM1 39V4H-1V39H1ZM4 42C2.34314 42 1 40.6569 1 39H-1C-1 41.7614 1.23857 44 4 44V42ZM299 39C299 40.6569 297.657 42 296 42V44C298.761 44 301 41.7614 301 39H299ZM296 1C297.657 1 299 2.34314 299 4H301C301 1.23858 298.761 -1 296 -1V1ZM4 -1C1.23858 -1 -1 1.23858 -1 4H1C1 2.34315 2.34315 1 4 1V-1Z" fill="#E2E8F0"/>
</g>
</g>
<g id="Button/Outline/Hover @click @dest:scr_order">
<g id="Button/Primitive/Hover">
<g id="Button/Primitive/Default">
<path d="M80.5 74C80.5 71.7909 82.2909 70 84.5 70H215.5C217.709 70 219.5 71.7909 219.5 74V106C219.5 108.209 217.709 110 215.5 110H84.5C82.2909 110 80.5 108.209 80.5 106V74Z" fill="#00D1CD"/>
<g id="Subscribe now">
<path d="M107.84 96H106.56L106.256 94.656C105.723 95.264 105.19 95.6853 104.656 95.92C104.123 96.1547 103.51 96.272 102.816 96.272C101.963 96.272 101.195 96.1173 100.512 95.808C99.8403 95.488 99.2696 95.056 98.8003 94.512C98.3309 93.968 97.9683 93.3333 97.7122 92.608C97.4669 91.8827 97.3443 91.1093 97.3443 90.288C97.3443 89.4773 97.4669 88.7093 97.7122 87.984C97.9683 87.2587 98.3309 86.624 98.8003 86.08C99.2696 85.536 99.8403 85.104 100.512 84.784C101.195 84.464 101.963 84.304 102.816 84.304C103.435 84.304 104.022 84.3893 104.576 84.56C105.142 84.72 105.643 84.9653 106.08 85.296C106.518 85.616 106.88 86.0213 107.168 86.512C107.456 87.0027 107.638 87.568 107.712 88.208H105.76C105.707 87.8347 105.59 87.5093 105.408 87.232C105.238 86.944 105.019 86.704 104.752 86.512C104.486 86.32 104.187 86.176 103.856 86.08C103.526 85.984 103.179 85.936 102.816 85.936C102.208 85.936 101.68 86.0587 101.232 86.304C100.795 86.5493 100.438 86.88 100.16 87.296C99.8829 87.7013 99.6749 88.1653 99.5363 88.688C99.4083 89.2107 99.3443 89.744 99.3443 90.288C99.3443 90.832 99.4083 91.3653 99.5363 91.888C99.6749 92.4107 99.8829 92.88 100.16 93.296C100.438 93.7013 100.795 94.0267 101.232 94.272C101.68 94.5173 102.208 94.64 102.816 94.64C103.328 94.6507 103.782 94.5867 104.176 94.448C104.571 94.2987 104.902 94.0907 105.168 93.824C105.446 93.5467 105.654 93.2107 105.792 92.816C105.931 92.4213 106.006 91.984 106.016 91.504H102.976V89.984H107.84V96ZM115.437 91.136C115.416 90.848 115.352 90.5707 115.245 90.304C115.149 90.0373 115.01 89.808 114.829 89.616C114.658 89.4133 114.445 89.2533 114.189 89.136C113.944 89.008 113.666 88.944 113.357 88.944C113.037 88.944 112.744 89.0027 112.477 89.12C112.221 89.2267 111.997 89.3813 111.805 89.584C111.624 89.776 111.474 90.0053 111.357 90.272C111.25 90.5387 111.192 90.8267 111.181 91.136H115.437ZM111.181 92.336C111.181 92.656 111.224 92.9653 111.309 93.264C111.405 93.5627 111.544 93.824 111.725 94.048C111.906 94.272 112.136 94.4533 112.413 94.592C112.69 94.72 113.021 94.784 113.405 94.784C113.938 94.784 114.365 94.672 114.685 94.448C115.016 94.2133 115.261 93.8667 115.421 93.408H117.149C117.053 93.856 116.888 94.256 116.653 94.608C116.418 94.96 116.136 95.2587 115.805 95.504C115.474 95.7387 115.101 95.9147 114.685 96.032C114.28 96.16 113.853 96.224 113.405 96.224C112.754 96.224 112.178 96.1173 111.677 95.904C111.176 95.6907 110.749 95.392 110.397 95.008C110.056 94.624 109.794 94.1653 109.613 93.632C109.442 93.0987 109.357 92.512 109.357 91.872C109.357 91.2853 109.448 90.7307 109.629 90.208C109.821 89.6747 110.088 89.2107 110.429 88.816C110.781 88.4107 111.202 88.0907 111.693 87.856C112.184 87.6213 112.738 87.504 113.357 87.504C114.008 87.504 114.589 87.6427 115.101 87.92C115.624 88.1867 116.056 88.544 116.397 88.992C116.738 89.44 116.984 89.9573 117.133 90.544C117.293 91.12 117.336 91.7173 117.261 92.336H111.181ZM117.816 87.728H119.192V85.248H121.016V87.728H122.664V89.088H121.016V93.504C121.016 93.696 121.021 93.8613 121.032 94C121.053 94.1387 121.09 94.256 121.144 94.352C121.208 94.448 121.298 94.5227 121.416 94.576C121.533 94.6187 121.693 94.64 121.896 94.64C122.024 94.64 122.152 94.64 122.28 94.64C122.408 94.6293 122.536 94.608 122.664 94.576V95.984C122.461 96.0053 122.264 96.0267 122.072 96.048C121.88 96.0693 121.682 96.08 121.48 96.08C121 96.08 120.61 96.0373 120.312 95.952C120.024 95.856 119.794 95.7227 119.624 95.552C119.464 95.3707 119.352 95.1467 119.288 94.88C119.234 94.6133 119.202 94.3093 119.192 93.968V89.088H117.816V87.728ZM128.429 87.728H130.157V88.944L130.189 88.976C130.466 88.5173 130.829 88.16 131.277 87.904C131.725 87.6373 132.221 87.504 132.765 87.504C133.671 87.504 134.386 87.7387 134.909 88.208C135.431 88.6773 135.693 89.3813 135.693 90.32V96H133.869V90.8C133.847 90.1493 133.709 89.68 133.453 89.392C133.197 89.0933 132.797 88.944 132.253 88.944C131.943 88.944 131.666 89.0027 131.421 89.12C131.175 89.2267 130.967 89.3813 130.797 89.584C130.626 89.776 130.493 90.0053 130.397 90.272C130.301 90.5387 130.253 90.8213 130.253 91.12V96H128.429V87.728ZM141.408 96.224C140.747 96.224 140.155 96.1173 139.632 95.904C139.12 95.68 138.683 95.376 138.32 94.992C137.968 94.608 137.696 94.1493 137.504 93.616C137.323 93.0827 137.232 92.496 137.232 91.856C137.232 91.2267 137.323 90.6453 137.504 90.112C137.696 89.5787 137.968 89.12 138.32 88.736C138.683 88.352 139.12 88.0533 139.632 87.84C140.155 87.616 140.747 87.504 141.408 87.504C142.07 87.504 142.656 87.616 143.168 87.84C143.691 88.0533 144.128 88.352 144.48 88.736C144.843 89.12 145.115 89.5787 145.296 90.112C145.488 90.6453 145.584 91.2267 145.584 91.856C145.584 92.496 145.488 93.0827 145.296 93.616C145.115 94.1493 144.843 94.608 144.48 94.992C144.128 95.376 143.691 95.68 143.168 95.904C142.656 96.1173 142.07 96.224 141.408 96.224ZM141.408 94.784C141.814 94.784 142.166 94.6987 142.464 94.528C142.763 94.3573 143.008 94.1333 143.2 93.856C143.392 93.5787 143.531 93.2693 143.616 92.928C143.712 92.576 143.76 92.2187 143.76 91.856C143.76 91.504 143.712 91.152 143.616 90.8C143.531 90.448 143.392 90.1387 143.2 89.872C143.008 89.5947 142.763 89.3707 142.464 89.2C142.166 89.0293 141.814 88.944 141.408 88.944C141.003 88.944 140.651 89.0293 140.352 89.2C140.054 89.3707 139.808 89.5947 139.616 89.872C139.424 90.1387 139.28 90.448 139.184 90.8C139.099 91.152 139.056 91.504 139.056 91.856C139.056 92.2187 139.099 92.576 139.184 92.928C139.28 93.2693 139.424 93.5787 139.616 93.856C139.808 94.1333 140.054 94.3573 140.352 94.528C140.651 94.6987 141.003 94.784 141.408 94.784ZM146.269 87.728H147.645V85.248H149.469V87.728H151.117V89.088H149.469V93.504C149.469 93.696 149.474 93.8613 149.485 94C149.506 94.1387 149.543 94.256 149.597 94.352C149.661 94.448 149.751 94.5227 149.869 94.576C149.986 94.6187 150.146 94.64 150.349 94.64C150.477 94.64 150.605 94.64 150.733 94.64C150.861 94.6293 150.989 94.608 151.117 94.576V95.984C150.914 96.0053 150.717 96.0267 150.525 96.048C150.333 96.0693 150.135 96.08 149.933 96.08C149.453 96.08 149.063 96.0373 148.765 95.952C148.477 95.856 148.247 95.7227 148.077 95.552C147.917 95.3707 147.805 95.1467 147.741 94.88C147.687 94.6133 147.655 94.3093 147.645 93.968V89.088H146.269V87.728ZM152.477 84.576H154.301V86.304H152.477V84.576ZM152.477 87.728H154.301V96H152.477V87.728ZM161.376 84.576H163.2V86.304H161.376V84.576ZM155.472 87.728H156.832V87.04C156.832 86.5173 156.896 86.096 157.024 85.776C157.152 85.4453 157.323 85.1947 157.536 85.024C157.749 84.8427 157.989 84.7253 158.256 84.672C158.533 84.608 158.821 84.576 159.12 84.576C159.707 84.576 160.133 84.6133 160.4 84.688V86.112C160.283 86.08 160.155 86.0587 160.016 86.048C159.888 86.0267 159.733 86.016 159.552 86.016C159.307 86.016 159.093 86.0747 158.912 86.192C158.741 86.3093 158.656 86.5387 158.656 86.88V87.728H160.208V89.088H158.656V96H156.832V89.088H155.472V87.728ZM161.376 87.728H163.2V96H161.376V87.728ZM170.859 91.136C170.837 90.848 170.773 90.5707 170.667 90.304C170.571 90.0373 170.432 89.808 170.251 89.616C170.08 89.4133 169.867 89.2533 169.611 89.136C169.365 89.008 169.088 88.944 168.779 88.944C168.459 88.944 168.165 89.0027 167.899 89.12C167.643 89.2267 167.419 89.3813 167.227 89.584C167.045 89.776 166.896 90.0053 166.779 90.272C166.672 90.5387 166.613 90.8267 166.603 91.136H170.859ZM166.603 92.336C166.603 92.656 166.645 92.9653 166.731 93.264C166.827 93.5627 166.965 93.824 167.147 94.048C167.328 94.272 167.557 94.4533 167.835 94.592C168.112 94.72 168.443 94.784 168.827 94.784C169.36 94.784 169.787 94.672 170.107 94.448C170.437 94.2133 170.683 93.8667 170.843 93.408H172.571C172.475 93.856 172.309 94.256 172.075 94.608C171.84 94.96 171.557 95.2587 171.227 95.504C170.896 95.7387 170.523 95.9147 170.107 96.032C169.701 96.16 169.275 96.224 168.827 96.224C168.176 96.224 167.6 96.1173 167.099 95.904C166.597 95.6907 166.171 95.392 165.819 95.008C165.477 94.624 165.216 94.1653 165.035 93.632C164.864 93.0987 164.779 92.512 164.779 91.872C164.779 91.2853 164.869 90.7307 165.051 90.208C165.243 89.6747 165.509 89.2107 165.851 88.816C166.203 88.4107 166.624 88.0907 167.115 87.856C167.605 87.6213 168.16 87.504 168.779 87.504C169.429 87.504 170.011 87.6427 170.523 87.92C171.045 88.1867 171.477 88.544 171.819 88.992C172.16 89.44 172.405 89.9573 172.555 90.544C172.715 91.12 172.757 91.7173 172.683 92.336H166.603ZM181.861 96H180.133V94.88H180.101C179.856 95.36 179.499 95.7067 179.029 95.92C178.56 96.1227 178.064 96.224 177.541 96.224C176.891 96.224 176.32 96.112 175.829 95.888C175.349 95.6533 174.949 95.3387 174.629 94.944C174.309 94.5493 174.069 94.0853 173.909 93.552C173.749 93.008 173.669 92.4267 173.669 91.808C173.669 91.0613 173.771 90.416 173.973 89.872C174.176 89.328 174.443 88.88 174.773 88.528C175.115 88.176 175.499 87.92 175.925 87.76C176.363 87.5893 176.805 87.504 177.253 87.504C177.509 87.504 177.771 87.5307 178.037 87.584C178.304 87.6267 178.56 87.7013 178.805 87.808C179.051 87.9147 179.275 88.0533 179.477 88.224C179.691 88.384 179.867 88.576 180.005 88.8H180.037V84.576H181.861V96ZM175.493 91.952C175.493 92.304 175.536 92.6507 175.621 92.992C175.717 93.3333 175.856 93.6373 176.037 93.904C176.229 94.1707 176.469 94.384 176.757 94.544C177.045 94.704 177.387 94.784 177.781 94.784C178.187 94.784 178.533 94.6987 178.821 94.528C179.12 94.3573 179.36 94.1333 179.541 93.856C179.733 93.5787 179.872 93.2693 179.957 92.928C180.053 92.576 180.101 92.2187 180.101 91.856C180.101 90.9387 179.893 90.224 179.477 89.712C179.072 89.2 178.517 88.944 177.813 88.944C177.387 88.944 177.024 89.0347 176.725 89.216C176.437 89.3867 176.197 89.616 176.005 89.904C175.824 90.1813 175.691 90.5013 175.605 90.864C175.531 91.216 175.493 91.5787 175.493 91.952Z" fill="white"/>
<path d="M187.344 97.12H203.344V81.12H187.344V97.12Z"/>
</g>
<path d="M84.5 71H215.5V69H84.5V71ZM218.5 74V106H220.5V74H218.5ZM215.5 109H84.5V111H215.5V109ZM81.5 106V74H79.5V106H81.5ZM84.5 109C82.8431 109 81.5 107.657 81.5 106H79.5C79.5 108.761 81.7386 111 84.5 111V109ZM218.5 106C218.5 107.657 217.157 109 215.5 109V111C218.261 111 220.5 108.761 220.5 106H218.5ZM215.5 71C217.157 71 218.5 72.3431 218.5 74H220.5C220.5 71.2386 218.261 69 215.5 69V71ZM84.5 69C81.7386 69 79.5 71.2386 79.5 74H81.5C81.5 72.3431 82.8431 71 84.5 71V69Z" fill="#00D1CD"/>
</g>
</g>
</g>
</g>
</svg>
